<svg xmlns="http://www.w3.org/2000/svg" viewBox="0 0 1200 230" width="1200" height="230" role="img" aria-label="Banner decorativo">
<defs>
<linearGradient id="bg" x1="0" y1="0" x2="0.9" y2="1"><stop offset="0%" stop-color="#01060A"/><stop offset="35%" stop-color="#0A2130"/><stop offset="100%" stop-color="#26536B"/></linearGradient>
<radialGradient id="glow" cx="50%" cy="-10%" r="90%"><stop offset="0%" stop-color="#36BCF7" stop-opacity="0.34"/><stop offset="48%" stop-color="#36BCF7" stop-opacity="0.08"/><stop offset="100%" stop-color="#36BCF7" stop-opacity="0"/></radialGradient>
<radialGradient id="aurora" cx="18%" cy="4%" r="60%"><stop offset="0%" stop-color="#39D353" stop-opacity="0.22"/><stop offset="100%" stop-color="#39D353" stop-opacity="0"/></radialGradient>
<radialGradient id="aurora2" cx="84%" cy="10%" r="50%"><stop offset="0%" stop-color="#8B5CF6" stop-opacity="0.14"/><stop offset="100%" stop-color="#8B5CF6" stop-opacity="0"/></radialGradient>
<linearGradient id="w0" x1="0" y1="0" x2="1" y2="0.35"><stop offset="0%" stop-color="#0A2E3E"/><stop offset="100%" stop-color="#06202C"/></linearGradient>
<linearGradient id="w1" x1="0" y1="0" x2="1" y2="0.35"><stop offset="0%" stop-color="#0F5F76"/><stop offset="100%" stop-color="#0A3B4E"/></linearGradient>
<linearGradient id="w2" x1="0" y1="0" x2="1" y2="0.35"><stop offset="0%" stop-color="#178FB0"/><stop offset="100%" stop-color="#0E5A75"/></linearGradient>
<linearGradient id="w3" x1="0" y1="0" x2="1" y2="0.35"><stop offset="0%" stop-color="#1FB3D8"/><stop offset="100%" stop-color="#127FA6"/></linearGradient>
<linearGradient id="w4" x1="0" y1="0" x2="1" y2="0.35"><stop offset="0%" stop-color="#2FD3A8"/><stop offset="100%" stop-color="#1AA98F"/></linearGradient>
<linearGradient id="w5" x1="0" y1="0" x2="1" y2="0.35"><stop offset="0%" stop-color="#39D353"/><stop offset="100%" stop-color="#26A641"/></linearGradient>
<clipPath id="rc"><rect width="1200" height="230" rx="16"/></clipPath>
</defs>
<g clip-path="url(#rc)">
<rect width="1200" height="230" fill="url(#bg)"/>
<rect width="1200" height="230" fill="url(#aurora)"/>
<rect width="1200" height="230" fill="url(#aurora2)"/>
<rect width="1200" height="230" fill="url(#glow)"/>
<circle cx="958.9" cy="38.5" r="0.9" fill="#EAFBFF" opacity="0.23"/>
<circle cx="1127.6" cy="34.9" r="2.1" fill="#EAFBFF" opacity="0.7"/>
<circle cx="285.4" cy="63.6" r="2.1" fill="#EAFBFF" opacity="0.12"/>
<circle cx="335.9" cy="94.1" r="1.6" fill="#EAFBFF" opacity="0.22"/>
<circle cx="976.0" cy="58.3" r="1.6" fill="#EAFBFF" opacity="0.23"/>
<circle cx="385.8" cy="12.5" r="1.2" fill="#EAFBFF" opacity="0.43"/>
<circle cx="246.0" cy="23.9" r="0.7" fill="#EAFBFF" opacity="0.61"/>
<circle cx="836.7" cy="101.2" r="2.1" fill="#EAFBFF" opacity="0.53"/>
<circle cx="91.6" cy="94.5" r="0.9" fill="#EAFBFF" opacity="0.55"/>
<circle cx="1019.7" cy="13.3" r="1.6" fill="#EAFBFF" opacity="0.6"/>
<circle cx="1100.2" cy="88.5" r="0.7" fill="#EAFBFF" opacity="0.28"/>
<circle cx="752.5" cy="103.3" r="0.7" fill="#EAFBFF" opacity="0.32"/>
<circle cx="635.7" cy="93.3" r="1.6" fill="#EAFBFF" opacity="0.56"/>
<circle cx="1135.0" cy="60.9" r="0.9" fill="#EAFBFF" opacity="0.45"/>
<circle cx="483.2" cy="18.1" r="1.6" fill="#EAFBFF" opacity="0.13"/>
<circle cx="1181.8" cy="8.7" r="0.7" fill="#EAFBFF" opacity="0.55"/>
<circle cx="912.2" cy="50.2" r="1.2" fill="#EAFBFF" opacity="0.69"/>
<circle cx="1086.1" cy="78.0" r="0.7" fill="#EAFBFF" opacity="0.5"/>
<circle cx="987.1" cy="74.3" r="0.9" fill="#EAFBFF" opacity="0.29"/>
<circle cx="110.2" cy="94.9" r="1.2" fill="#EAFBFF" opacity="0.66"/>
<circle cx="900.9" cy="65.7" r="0.7" fill="#EAFBFF" opacity="0.58"/>
<circle cx="175.7" cy="93.3" r="0.7" fill="#EAFBFF" opacity="0.53"/>
<circle cx="287.9" cy="75.7" r="1.6" fill="#EAFBFF" opacity="0.19"/>
<circle cx="468.3" cy="54.9" r="0.9" fill="#EAFBFF" opacity="0.26"/>
<circle cx="251.9" cy="94.3" r="0.9" fill="#EAFBFF" opacity="0.22"/>
<circle cx="30.1" cy="107.4" r="0.9" fill="#EAFBFF" opacity="0.51"/>
<circle cx="923.5" cy="108.4" r="2.1" fill="#EAFBFF" opacity="0.53"/>
<circle cx="721.3" cy="56.4" r="1.2" fill="#EAFBFF" opacity="0.47"/>
<circle cx="1062.4" cy="54.4" r="1.6" fill="#EAFBFF" opacity="0.29"/>
<circle cx="331.5" cy="52.5" r="0.9" fill="#EAFBFF" opacity="0.13"/>
<circle cx="583.8" cy="6.9" r="0.9" fill="#EAFBFF" opacity="0.13"/>
<circle cx="790.4" cy="14.9" r="0.9" fill="#EAFBFF" opacity="0.51"/>
<circle cx="934.9" cy="21.0" r="1.6" fill="#EAFBFF" opacity="0.28"/>
<circle cx="1052.7" cy="61.0" r="1.6" fill="#EAFBFF" opacity="0.23"/>
<circle cx="994.0" cy="49.7" r="1.2" fill="#EAFBFF" opacity="0.28"/>
<circle cx="1079.2" cy="12.4" r="2.1" fill="#EAFBFF" opacity="0.31"/>
<circle cx="1096.7" cy="87.6" r="1.2" fill="#EAFBFF" opacity="0.56"/>
<circle cx="1199.8" cy="55.1" r="2.1" fill="#EAFBFF" opacity="0.35"/>
<circle cx="641.4" cy="108.6" r="1.2" fill="#EAFBFF" opacity="0.34"/>
<circle cx="895.8" cy="64.2" r="1.2" fill="#EAFBFF" opacity="0.66"/>
<circle cx="329.1" cy="14.2" r="0.9" fill="#EAFBFF" opacity="0.33"/>
<circle cx="937.9" cy="8.3" r="2.1" fill="#EAFBFF" opacity="0.48"/>
<circle cx="726.1" cy="66.2" r="2.1" fill="#EAFBFF" opacity="0.13"/>
<circle cx="864.7" cy="66.9" r="0.9" fill="#EAFBFF" opacity="0.28"/>
<circle cx="193.1" cy="108.6" r="0.7" fill="#EAFBFF" opacity="0.51"/>
<circle cx="878.9" cy="66.5" r="1.6" fill="#EAFBFF" opacity="0.17"/>
<circle cx="842.8" cy="11.6" r="1.6" fill="#EAFBFF" opacity="0.5"/>
<circle cx="884.2" cy="3.6" r="1.6" fill="#EAFBFF" opacity="0.55"/>
<circle cx="178.6" cy="47.1" r="2.1" fill="#EAFBFF" opacity="0.61"/>
<circle cx="92.0" cy="3.5" r="0.7" fill="#EAFBFF" opacity="0.34"/>
<circle cx="151.9" cy="103.4" r="1.2" fill="#EAFBFF" opacity="0.59"/>
<circle cx="1124.0" cy="72.0" r="0.9" fill="#EAFBFF" opacity="0.43"/>
<circle cx="802.1" cy="10.6" r="2.1" fill="#EAFBFF" opacity="0.7"/>
<circle cx="875.6" cy="58.8" r="0.7" fill="#EAFBFF" opacity="0.22"/>
<circle cx="578.0" cy="62.0" r="1.2" fill="#EAFBFF" opacity="0.31"/>
<circle cx="275.6" cy="56.0" r="1.6" fill="#EAFBFF" opacity="0.67"/>
<circle cx="464.0" cy="74.9" r="2.1" fill="#EAFBFF" opacity="0.57"/>
<circle cx="482.3" cy="13.5" r="2.1" fill="#EAFBFF" opacity="0.5"/>
<circle cx="776.7" cy="73.1" r="1.2" fill="#EAFBFF" opacity="0.32"/>
<circle cx="773.1" cy="23.9" r="2.1" fill="#EAFBFF" opacity="0.32"/>
<circle cx="771.2" cy="30.7" r="0.9" fill="#EAFBFF" opacity="0.66"/>
<circle cx="413.7" cy="18.9" r="1.2" fill="#EAFBFF" opacity="0.43"/>
<circle cx="536.3" cy="36.0" r="0.9" fill="#EAFBFF" opacity="0.52"/>
<circle cx="112.8" cy="67.1" r="0.7" fill="#EAFBFF" opacity="0.28"/>
<circle cx="207.7" cy="4.0" r="1.2" fill="#EAFBFF" opacity="0.46"/>
<circle cx="518.4" cy="60.2" r="1.6" fill="#EAFBFF" opacity="0.52"/>
<circle cx="1051.9" cy="90.4" r="1.6" fill="#EAFBFF" opacity="0.59"/>
<circle cx="650.2" cy="54.5" r="1.6" fill="#EAFBFF" opacity="0.64"/>
<circle cx="463.1" cy="97.5" r="1.6" fill="#EAFBFF" opacity="0.47"/>
<circle cx="313.3" cy="108.4" r="1.2" fill="#EAFBFF" opacity="0.67"/>
<circle cx="526.4" cy="97.9" r="2.1" fill="#EAFBFF" opacity="0.13"/>
<circle cx="91.8" cy="39.0" r="1.2" fill="#EAFBFF" opacity="0.5"/>
<circle cx="717.3" cy="96.7" r="1.2" fill="#EAFBFF" opacity="0.33"/>
<circle cx="147.8" cy="79.2" r="0.9" fill="#EAFBFF" opacity="0.22"/>
<circle cx="591.4" cy="35.1" r="1.2" fill="#EAFBFF" opacity="0.67"/>
<circle cx="1059.4" cy="75.3" r="0.9" fill="#EAFBFF" opacity="0.22"/>
<circle cx="511.7" cy="5.7" r="2.1" fill="#EAFBFF" opacity="0.18"/>
<circle cx="759.7" cy="28.3" r="2.1" fill="#EAFBFF" opacity="0.14"/>
<circle cx="1120.1" cy="55.6" r="2.1" fill="#EAFBFF" opacity="0.7"/>
<circle cx="1088.6" cy="12.9" r="0.7" fill="#EAFBFF" opacity="0.54"/>
<circle cx="583.9" cy="33.3" r="2.1" fill="#EAFBFF" opacity="0.16"/>
<circle cx="232.8" cy="42.5" r="0.9" fill="#EAFBFF" opacity="0.46"/>
<circle cx="1048.3" cy="6.4" r="2.1" fill="#EAFBFF" opacity="0.67"/>
<circle cx="863.2" cy="22.5" r="2.1" fill="#EAFBFF" opacity="0.58"/>
<circle cx="332.9" cy="106.3" r="0.7" fill="#EAFBFF" opacity="0.55"/>
<circle cx="642.2" cy="59.9" r="1.2" fill="#EAFBFF" opacity="0.49"/>
<circle cx="846.5" cy="55.2" r="0.9" fill="#EAFBFF" opacity="0.19"/>
<circle cx="575.4" cy="82.8" r="1.6" fill="#EAFBFF" opacity="0.46"/>
<circle cx="115.4" cy="21.3" r="1.6" fill="#EAFBFF" opacity="0.26"/>
<circle cx="967.6" cy="58.3" r="1.2" fill="#EAFBFF" opacity="0.55"/>
<circle cx="395.8" cy="55.0" r="1.2" fill="#EAFBFF" opacity="0.25"/>
<circle cx="959.3" cy="7.8" r="2.1" fill="#EAFBFF" opacity="0.26"/>
<circle cx="1159.6" cy="93.0" r="0.7" fill="#EAFBFF" opacity="0.37"/>
<circle cx="109.2" cy="25.4" r="1.6" fill="#EAFBFF" opacity="0.25"/>
<circle cx="584.2" cy="88.1" r="1.2" fill="#EAFBFF" opacity="0.31"/>
<circle cx="1109.8" cy="110.8" r="1.2" fill="#EAFBFF" opacity="0.4"/>
<circle cx="692.4" cy="22.7" r="1.6" fill="#EAFBFF" opacity="0.4"/>
<circle cx="491.0" cy="23.4" r="0.7" fill="#EAFBFF" opacity="0.15"/>
<circle cx="19.2" cy="42.8" r="1.6" fill="#EAFBFF" opacity="0.27"/>
<circle cx="561.6" cy="12.9" r="1.2" fill="#EAFBFF" opacity="0.37"/>
<path d="M 0,125.3 L 3.0,125.4 L 6.0,125.6 L 9.0,125.7 L 12.0,125.8 L 15.0,126.0 L 18.0,126.1 L 21.0,126.2 L 24.0,126.3 L 27.0,126.4 L 30.0,126.5 L 33.0,126.6 L 36.0,126.7 L 39.0,126.8 L 42.0,126.9 L 45.0,127.0 L 48.0,127.0 L 51.0,127.1 L 54.0,127.2 L 57.0,127.2 L 60.0,127.3 L 63.0,127.3 L 66.0,127.4 L 69.0,127.4 L 72.0,127.5 L 75.0,127.5 L 78.0,127.5 L 81.0,127.6 L 84.0,127.6 L 87.0,127.6 L 90.0,127.6 L 93.0,127.7 L 96.0,127.7 L 99.0,127.7 L 102.0,127.7 L 105.0,127.8 L 108.0,127.8 L 111.0,127.8 L 114.0,127.8 L 117.0,127.8 L 120.0,127.8 L 123.0,127.9 L 126.0,127.9 L 129.0,127.9 L 132.0,127.9 L 135.0,127.9 L 138.0,128.0 L 141.0,128.0 L 144.0,128.0 L 147.0,128.0 L 150.0,128.1 L 153.0,128.1 L 156.0,128.1 L 159.0,128.2 L 162.0,128.2 L 165.0,128.2 L 168.0,128.3 L 171.0,128.3 L 174.0,128.4 L 177.0,128.4 L 180.0,128.5 L 183.0,128.5 L 186.0,128.6 L 189.0,128.6 L 192.0,128.7 L 195.0,128.8 L 198.0,128.9 L 201.0,128.9 L 204.0,129.0 L 207.0,129.1 L 210.0,129.2 L 213.0,129.3 L 216.0,129.4 L 219.0,129.5 L 222.0,129.6 L 225.0,129.7 L 228.0,129.9 L 231.0,130.0 L 234.0,130.1 L 237.0,130.2 L 240.0,130.4 L 243.0,130.5 L 246.0,130.7 L 249.0,130.8 L 252.0,131.0 L 255.0,131.1 L 258.0,131.3 L 261.0,131.5 L 264.0,131.6 L 267.0,131.8 L 270.0,132.0 L 273.0,132.2 L 276.0,132.4 L 279.0,132.6 L 282.0,132.8 L 285.0,133.0 L 288.0,133.2 L 291.0,133.4 L 294.0,133.6 L 297.0,133.9 L 300.0,134.1 L 303.0,134.3 L 306.0,134.5 L 309.0,134.8 L 312.0,135.0 L 315.0,135.3 L 318.0,135.5 L 321.0,135.7 L 324.0,136.0 L 327.0,136.2 L 330.0,136.5 L 333.0,136.8 L 336.0,137.0 L 339.0,137.3 L 342.0,137.5 L 345.0,137.8 L 348.0,138.1 L 351.0,138.3 L 354.0,138.6 L 357.0,138.9 L 360.0,139.2 L 363.0,139.4 L 366.0,139.7 L 369.0,140.0 L 372.0,140.2 L 375.0,140.5 L 378.0,140.8 L 381.0,141.0 L 384.0,141.3 L 387.0,141.6 L 390.0,141.8 L 393.0,142.1 L 396.0,142.4 L 399.0,142.6 L 402.0,142.9 L 405.0,143.1 L 408.0,143.4 L 411.0,143.6 L 414.0,143.9 L 417.0,144.1 L 420.0,144.4 L 423.0,144.6 L 426.0,144.8 L 429.0,145.0 L 432.0,145.3 L 435.0,145.5 L 438.0,145.7 L 441.0,145.9 L 444.0,146.1 L 447.0,146.3 L 450.0,146.5 L 453.0,146.7 L 456.0,146.8 L 459.0,147.0 L 462.0,147.2 L 465.0,147.3 L 468.0,147.5 L 471.0,147.6 L 474.0,147.7 L 477.0,147.8 L 480.0,148.0 L 483.0,148.1 L 486.0,148.2 L 489.0,148.3 L 492.0,148.3 L 495.0,148.4 L 498.0,148.5 L 501.0,148.5 L 504.0,148.6 L 507.0,148.6 L 510.0,148.6 L 513.0,148.6 L 516.0,148.6 L 519.0,148.6 L 522.0,148.6 L 525.0,148.6 L 528.0,148.5 L 531.0,148.5 L 534.0,148.4 L 537.0,148.3 L 540.0,148.3 L 543.0,148.2 L 546.0,148.1 L 549.0,147.9 L 552.0,147.8 L 555.0,147.7 L 558.0,147.5 L 561.0,147.3 L 564.0,147.2 L 567.0,147.0 L 570.0,146.8 L 573.0,146.6 L 576.0,146.3 L 579.0,146.1 L 582.0,145.9 L 585.0,145.6 L 588.0,145.3 L 591.0,145.0 L 594.0,144.7 L 597.0,144.4 L 600.0,144.1 L 603.0,143.8 L 606.0,143.4 L 609.0,143.1 L 612.0,142.7 L 615.0,142.3 L 618.0,142.0 L 621.0,141.6 L 624.0,141.1 L 627.0,140.7 L 630.0,140.3 L 633.0,139.8 L 636.0,139.4 L 639.0,138.9 L 642.0,138.4 L 645.0,137.9 L 648.0,137.4 L 651.0,136.9 L 654.0,136.4 L 657.0,135.9 L 660.0,135.3 L 663.0,134.8 L 666.0,134.2 L 669.0,133.7 L 672.0,133.1 L 675.0,132.5 L 678.0,131.9 L 681.0,131.3 L 684.0,130.7 L 687.0,130.1 L 690.0,129.5 L 693.0,128.8 L 696.0,128.2 L 699.0,127.5 L 702.0,126.9 L 705.0,126.2 L 708.0,125.5 L 711.0,124.9 L 714.0,124.2 L 717.0,123.5 L 720.0,122.8 L 723.0,122.1 L 726.0,121.4 L 729.0,120.7 L 732.0,120.0 L 735.0,119.3 L 738.0,118.6 L 741.0,117.9 L 744.0,117.1 L 747.0,116.4 L 750.0,115.7 L 753.0,114.9 L 756.0,114.2 L 759.0,113.5 L 762.0,112.7 L 765.0,112.0 L 768.0,111.3 L 771.0,110.5 L 774.0,109.8 L 777.0,109.1 L 780.0,108.3 L 783.0,107.6 L 786.0,106.8 L 789.0,106.1 L 792.0,105.4 L 795.0,104.6 L 798.0,103.9 L 801.0,103.2 L 804.0,102.5 L 807.0,101.7 L 810.0,101.0 L 813.0,100.3 L 816.0,99.6 L 819.0,98.9 L 822.0,98.2 L 825.0,97.5 L 828.0,96.8 L 831.0,96.1 L 834.0,95.5 L 837.0,94.8 L 840.0,94.1 L 843.0,93.5 L 846.0,92.8 L 849.0,92.2 L 852.0,91.5 L 855.0,90.9 L 858.0,90.3 L 861.0,89.6 L 864.0,89.0 L 867.0,88.4 L 870.0,87.8 L 873.0,87.2 L 876.0,86.7 L 879.0,86.1 L 882.0,85.5 L 885.0,85.0 L 888.0,84.5 L 891.0,83.9 L 894.0,83.4 L 897.0,82.9 L 900.0,82.4 L 903.0,81.9 L 906.0,81.4 L 909.0,81.0 L 912.0,80.5 L 915.0,80.1 L 918.0,79.6 L 921.0,79.2 L 924.0,78.8 L 927.0,78.4 L 930.0,78.0 L 933.0,77.6 L 936.0,77.3 L 939.0,76.9 L 942.0,76.6 L 945.0,76.2 L 948.0,75.9 L 951.0,75.6 L 954.0,75.3 L 957.0,75.0 L 960.0,74.8 L 963.0,74.5 L 966.0,74.2 L 969.0,74.0 L 972.0,73.8 L 975.0,73.6 L 978.0,73.4 L 981.0,73.2 L 984.0,73.0 L 987.0,72.8 L 990.0,72.7 L 993.0,72.5 L 996.0,72.4 L 999.0,72.3 L 1002.0,72.2 L 1005.0,72.1 L 1008.0,72.0 L 1011.0,71.9 L 1014.0,71.9 L 1017.0,71.8 L 1020.0,71.8 L 1023.0,71.7 L 1026.0,71.7 L 1029.0,71.7 L 1032.0,71.7 L 1035.0,71.7 L 1038.0,71.7 L 1041.0,71.8 L 1044.0,71.8 L 1047.0,71.9 L 1050.0,71.9 L 1053.0,72.0 L 1056.0,72.1 L 1059.0,72.1 L 1062.0,72.2 L 1065.0,72.3 L 1068.0,72.5 L 1071.0,72.6 L 1074.0,72.7 L 1077.0,72.8 L 1080.0,73.0 L 1083.0,73.1 L 1086.0,73.3 L 1089.0,73.4 L 1092.0,73.6 L 1095.0,73.8 L 1098.0,74.0 L 1101.0,74.2 L 1104.0,74.4 L 1107.0,74.6 L 1110.0,74.8 L 1113.0,75.0 L 1116.0,75.2 L 1119.0,75.4 L 1122.0,75.6 L 1125.0,75.9 L 1128.0,76.1 L 1131.0,76.3 L 1134.0,76.6 L 1137.0,76.8 L 1140.0,77.1 L 1143.0,77.3 L 1146.0,77.6 L 1149.0,77.8 L 1152.0,78.1 L 1155.0,78.3 L 1158.0,78.6 L 1161.0,78.8 L 1164.0,79.1 L 1167.0,79.4 L 1170.0,79.6 L 1173.0,79.9 L 1176.0,80.2 L 1179.0,80.4 L 1182.0,80.7 L 1185.0,80.9 L 1188.0,81.2 L 1191.0,81.5 L 1194.0,81.7 L 1197.0,82.0 L 1200.0,82.3 L 1200,230 L 0,230 Z" fill="url(#w0)" opacity="1.0"/>
<path d="M 0.0,125.3 L 3.0,125.4 L 6.0,125.6 L 9.0,125.7 L 12.0,125.8 L 15.0,126.0 L 18.0,126.1 L 21.0,126.2 L 24.0,126.3 L 27.0,126.4 L 30.0,126.5 L 33.0,126.6 L 36.0,126.7 L 39.0,126.8 L 42.0,126.9 L 45.0,127.0 L 48.0,127.0 L 51.0,127.1 L 54.0,127.2 L 57.0,127.2 L 60.0,127.3 L 63.0,127.3 L 66.0,127.4 L 69.0,127.4 L 72.0,127.5 L 75.0,127.5 L 78.0,127.5 L 81.0,127.6 L 84.0,127.6 L 87.0,127.6 L 90.0,127.6 L 93.0,127.7 L 96.0,127.7 L 99.0,127.7 L 102.0,127.7 L 105.0,127.8 L 108.0,127.8 L 111.0,127.8 L 114.0,127.8 L 117.0,127.8 L 120.0,127.8 L 123.0,127.9 L 126.0,127.9 L 129.0,127.9 L 132.0,127.9 L 135.0,127.9 L 138.0,128.0 L 141.0,128.0 L 144.0,128.0 L 147.0,128.0 L 150.0,128.1 L 153.0,128.1 L 156.0,128.1 L 159.0,128.2 L 162.0,128.2 L 165.0,128.2 L 168.0,128.3 L 171.0,128.3 L 174.0,128.4 L 177.0,128.4 L 180.0,128.5 L 183.0,128.5 L 186.0,128.6 L 189.0,128.6 L 192.0,128.7 L 195.0,128.8 L 198.0,128.9 L 201.0,128.9 L 204.0,129.0 L 207.0,129.1 L 210.0,129.2 L 213.0,129.3 L 216.0,129.4 L 219.0,129.5 L 222.0,129.6 L 225.0,129.7 L 228.0,129.9 L 231.0,130.0 L 234.0,130.1 L 237.0,130.2 L 240.0,130.4 L 243.0,130.5 L 246.0,130.7 L 249.0,130.8 L 252.0,131.0 L 255.0,131.1 L 258.0,131.3 L 261.0,131.5 L 264.0,131.6 L 267.0,131.8 L 270.0,132.0 L 273.0,132.2 L 276.0,132.4 L 279.0,132.6 L 282.0,132.8 L 285.0,133.0 L 288.0,133.2 L 291.0,133.4 L 294.0,133.6 L 297.0,133.9 L 300.0,134.1 L 303.0,134.3 L 306.0,134.5 L 309.0,134.8 L 312.0,135.0 L 315.0,135.3 L 318.0,135.5 L 321.0,135.7 L 324.0,136.0 L 327.0,136.2 L 330.0,136.5 L 333.0,136.8 L 336.0,137.0 L 339.0,137.3 L 342.0,137.5 L 345.0,137.8 L 348.0,138.1 L 351.0,138.3 L 354.0,138.6 L 357.0,138.9 L 360.0,139.2 L 363.0,139.4 L 366.0,139.7 L 369.0,140.0 L 372.0,140.2 L 375.0,140.5 L 378.0,140.8 L 381.0,141.0 L 384.0,141.3 L 387.0,141.6 L 390.0,141.8 L 393.0,142.1 L 396.0,142.4 L 399.0,142.6 L 402.0,142.9 L 405.0,143.1 L 408.0,143.4 L 411.0,143.6 L 414.0,143.9 L 417.0,144.1 L 420.0,144.4 L 423.0,144.6 L 426.0,144.8 L 429.0,145.0 L 432.0,145.3 L 435.0,145.5 L 438.0,145.7 L 441.0,145.9 L 444.0,146.1 L 447.0,146.3 L 450.0,146.5 L 453.0,146.7 L 456.0,146.8 L 459.0,147.0 L 462.0,147.2 L 465.0,147.3 L 468.0,147.5 L 471.0,147.6 L 474.0,147.7 L 477.0,147.8 L 480.0,148.0 L 483.0,148.1 L 486.0,148.2 L 489.0,148.3 L 492.0,148.3 L 495.0,148.4 L 498.0,148.5 L 501.0,148.5 L 504.0,148.6 L 507.0,148.6 L 510.0,148.6 L 513.0,148.6 L 516.0,148.6 L 519.0,148.6 L 522.0,148.6 L 525.0,148.6 L 528.0,148.5 L 531.0,148.5 L 534.0,148.4 L 537.0,148.3 L 540.0,148.3 L 543.0,148.2 L 546.0,148.1 L 549.0,147.9 L 552.0,147.8 L 555.0,147.7 L 558.0,147.5 L 561.0,147.3 L 564.0,147.2 L 567.0,147.0 L 570.0,146.8 L 573.0,146.6 L 576.0,146.3 L 579.0,146.1 L 582.0,145.9 L 585.0,145.6 L 588.0,145.3 L 591.0,145.0 L 594.0,144.7 L 597.0,144.4 L 600.0,144.1 L 603.0,143.8 L 606.0,143.4 L 609.0,143.1 L 612.0,142.7 L 615.0,142.3 L 618.0,142.0 L 621.0,141.6 L 624.0,141.1 L 627.0,140.7 L 630.0,140.3 L 633.0,139.8 L 636.0,139.4 L 639.0,138.9 L 642.0,138.4 L 645.0,137.9 L 648.0,137.4 L 651.0,136.9 L 654.0,136.4 L 657.0,135.9 L 660.0,135.3 L 663.0,134.8 L 666.0,134.2 L 669.0,133.7 L 672.0,133.1 L 675.0,132.5 L 678.0,131.9 L 681.0,131.3 L 684.0,130.7 L 687.0,130.1 L 690.0,129.5 L 693.0,128.8 L 696.0,128.2 L 699.0,127.5 L 702.0,126.9 L 705.0,126.2 L 708.0,125.5 L 711.0,124.9 L 714.0,124.2 L 717.0,123.5 L 720.0,122.8 L 723.0,122.1 L 726.0,121.4 L 729.0,120.7 L 732.0,120.0 L 735.0,119.3 L 738.0,118.6 L 741.0,117.9 L 744.0,117.1 L 747.0,116.4 L 750.0,115.7 L 753.0,114.9 L 756.0,114.2 L 759.0,113.5 L 762.0,112.7 L 765.0,112.0 L 768.0,111.3 L 771.0,110.5 L 774.0,109.8 L 777.0,109.1 L 780.0,108.3 L 783.0,107.6 L 786.0,106.8 L 789.0,106.1 L 792.0,105.4 L 795.0,104.6 L 798.0,103.9 L 801.0,103.2 L 804.0,102.5 L 807.0,101.7 L 810.0,101.0 L 813.0,100.3 L 816.0,99.6 L 819.0,98.9 L 822.0,98.2 L 825.0,97.5 L 828.0,96.8 L 831.0,96.1 L 834.0,95.5 L 837.0,94.8 L 840.0,94.1 L 843.0,93.5 L 846.0,92.8 L 849.0,92.2 L 852.0,91.5 L 855.0,90.9 L 858.0,90.3 L 861.0,89.6 L 864.0,89.0 L 867.0,88.4 L 870.0,87.8 L 873.0,87.2 L 876.0,86.7 L 879.0,86.1 L 882.0,85.5 L 885.0,85.0 L 888.0,84.5 L 891.0,83.9 L 894.0,83.4 L 897.0,82.9 L 900.0,82.4 L 903.0,81.9 L 906.0,81.4 L 909.0,81.0 L 912.0,80.5 L 915.0,80.1 L 918.0,79.6 L 921.0,79.2 L 924.0,78.8 L 927.0,78.4 L 930.0,78.0 L 933.0,77.6 L 936.0,77.3 L 939.0,76.9 L 942.0,76.6 L 945.0,76.2 L 948.0,75.9 L 951.0,75.6 L 954.0,75.3 L 957.0,75.0 L 960.0,74.8 L 963.0,74.5 L 966.0,74.2 L 969.0,74.0 L 972.0,73.8 L 975.0,73.6 L 978.0,73.4 L 981.0,73.2 L 984.0,73.0 L 987.0,72.8 L 990.0,72.7 L 993.0,72.5 L 996.0,72.4 L 999.0,72.3 L 1002.0,72.2 L 1005.0,72.1 L 1008.0,72.0 L 1011.0,71.9 L 1014.0,71.9 L 1017.0,71.8 L 1020.0,71.8 L 1023.0,71.7 L 1026.0,71.7 L 1029.0,71.7 L 1032.0,71.7 L 1035.0,71.7 L 1038.0,71.7 L 1041.0,71.8 L 1044.0,71.8 L 1047.0,71.9 L 1050.0,71.9 L 1053.0,72.0 L 1056.0,72.1 L 1059.0,72.1 L 1062.0,72.2 L 1065.0,72.3 L 1068.0,72.5 L 1071.0,72.6 L 1074.0,72.7 L 1077.0,72.8 L 1080.0,73.0 L 1083.0,73.1 L 1086.0,73.3 L 1089.0,73.4 L 1092.0,73.6 L 1095.0,73.8 L 1098.0,74.0 L 1101.0,74.2 L 1104.0,74.4 L 1107.0,74.6 L 1110.0,74.8 L 1113.0,75.0 L 1116.0,75.2 L 1119.0,75.4 L 1122.0,75.6 L 1125.0,75.9 L 1128.0,76.1 L 1131.0,76.3 L 1134.0,76.6 L 1137.0,76.8 L 1140.0,77.1 L 1143.0,77.3 L 1146.0,77.6 L 1149.0,77.8 L 1152.0,78.1 L 1155.0,78.3 L 1158.0,78.6 L 1161.0,78.8 L 1164.0,79.1 L 1167.0,79.4 L 1170.0,79.6 L 1173.0,79.9 L 1176.0,80.2 L 1179.0,80.4 L 1182.0,80.7 L 1185.0,80.9 L 1188.0,81.2 L 1191.0,81.5 L 1194.0,81.7 L 1197.0,82.0 L 1200.0,82.3" fill="none" stroke="#1E6E7E" stroke-opacity="0.45" stroke-width="1.8" stroke-linecap="round"/>
<path d="M 0,165.7 L 3.0,165.8 L 6.0,166.0 L 9.0,166.1 L 12.0,166.2 L 15.0,166.3 L 18.0,166.4 L 21.0,166.4 L 24.0,166.5 L 27.0,166.5 L 30.0,166.4 L 33.0,166.4 L 36.0,166.3 L 39.0,166.2 L 42.0,166.0 L 45.0,165.8 L 48.0,165.7 L 51.0,165.4 L 54.0,165.2 L 57.0,164.9 L 60.0,164.6 L 63.0,164.3 L 66.0,163.9 L 69.0,163.5 L 72.0,163.1 L 75.0,162.7 L 78.0,162.2 L 81.0,161.7 L 84.0,161.2 L 87.0,160.6 L 90.0,160.1 L 93.0,159.5 L 96.0,158.8 L 99.0,158.2 L 102.0,157.5 L 105.0,156.8 L 108.0,156.1 L 111.0,155.4 L 114.0,154.6 L 117.0,153.8 L 120.0,153.0 L 123.0,152.2 L 126.0,151.4 L 129.0,150.5 L 132.0,149.6 L 135.0,148.7 L 138.0,147.8 L 141.0,146.9 L 144.0,146.0 L 147.0,145.0 L 150.0,144.1 L 153.0,143.1 L 156.0,142.1 L 159.0,141.1 L 162.0,140.1 L 165.0,139.1 L 168.0,138.1 L 171.0,137.1 L 174.0,136.0 L 177.0,135.0 L 180.0,134.0 L 183.0,133.0 L 186.0,131.9 L 189.0,130.9 L 192.0,129.9 L 195.0,128.8 L 198.0,127.8 L 201.0,126.8 L 204.0,125.8 L 207.0,124.8 L 210.0,123.8 L 213.0,122.8 L 216.0,121.8 L 219.0,120.8 L 222.0,119.9 L 225.0,118.9 L 228.0,118.0 L 231.0,117.1 L 234.0,116.2 L 237.0,115.3 L 240.0,114.4 L 243.0,113.6 L 246.0,112.7 L 249.0,111.9 L 252.0,111.1 L 255.0,110.3 L 258.0,109.6 L 261.0,108.8 L 264.0,108.1 L 267.0,107.4 L 270.0,106.8 L 273.0,106.1 L 276.0,105.5 L 279.0,104.9 L 282.0,104.4 L 285.0,103.8 L 288.0,103.3 L 291.0,102.8 L 294.0,102.3 L 297.0,101.9 L 300.0,101.5 L 303.0,101.1 L 306.0,100.8 L 309.0,100.4 L 312.0,100.1 L 315.0,99.8 L 318.0,99.6 L 321.0,99.4 L 324.0,99.2 L 327.0,99.0 L 330.0,98.9 L 333.0,98.7 L 336.0,98.6 L 339.0,98.6 L 342.0,98.5 L 345.0,98.5 L 348.0,98.5 L 351.0,98.6 L 354.0,98.6 L 357.0,98.7 L 360.0,98.8 L 363.0,98.9 L 366.0,99.1 L 369.0,99.2 L 372.0,99.4 L 375.0,99.6 L 378.0,99.9 L 381.0,100.1 L 384.0,100.4 L 387.0,100.7 L 390.0,101.0 L 393.0,101.3 L 396.0,101.6 L 399.0,102.0 L 402.0,102.3 L 405.0,102.7 L 408.0,103.1 L 411.0,103.5 L 414.0,103.9 L 417.0,104.3 L 420.0,104.7 L 423.0,105.2 L 426.0,105.6 L 429.0,106.0 L 432.0,106.5 L 435.0,107.0 L 438.0,107.4 L 441.0,107.9 L 444.0,108.4 L 447.0,108.8 L 450.0,109.3 L 453.0,109.8 L 456.0,110.3 L 459.0,110.7 L 462.0,111.2 L 465.0,111.7 L 468.0,112.2 L 471.0,112.6 L 474.0,113.1 L 477.0,113.5 L 480.0,114.0 L 483.0,114.5 L 486.0,114.9 L 489.0,115.3 L 492.0,115.8 L 495.0,116.2 L 498.0,116.6 L 501.0,117.0 L 504.0,117.4 L 507.0,117.8 L 510.0,118.2 L 513.0,118.6 L 516.0,118.9 L 519.0,119.3 L 522.0,119.6 L 525.0,119.9 L 528.0,120.3 L 531.0,120.6 L 534.0,120.9 L 537.0,121.2 L 540.0,121.5 L 543.0,121.7 L 546.0,122.0 L 549.0,122.3 L 552.0,122.5 L 555.0,122.7 L 558.0,123.0 L 561.0,123.2 L 564.0,123.4 L 567.0,123.6 L 570.0,123.8 L 573.0,123.9 L 576.0,124.1 L 579.0,124.3 L 582.0,124.4 L 585.0,124.6 L 588.0,124.7 L 591.0,124.8 L 594.0,125.0 L 597.0,125.1 L 600.0,125.2 L 603.0,125.3 L 606.0,125.4 L 609.0,125.6 L 612.0,125.7 L 615.0,125.8 L 618.0,125.9 L 621.0,126.0 L 624.0,126.1 L 627.0,126.2 L 630.0,126.3 L 633.0,126.4 L 636.0,126.5 L 639.0,126.6 L 642.0,126.7 L 645.0,126.8 L 648.0,126.9 L 651.0,127.0 L 654.0,127.2 L 657.0,127.3 L 660.0,127.4 L 663.0,127.6 L 666.0,127.7 L 669.0,127.9 L 672.0,128.1 L 675.0,128.3 L 678.0,128.4 L 681.0,128.6 L 684.0,128.9 L 687.0,129.1 L 690.0,129.3 L 693.0,129.5 L 696.0,129.8 L 699.0,130.1 L 702.0,130.3 L 705.0,130.6 L 708.0,130.9 L 711.0,131.2 L 714.0,131.6 L 717.0,131.9 L 720.0,132.3 L 723.0,132.6 L 726.0,133.0 L 729.0,133.4 L 732.0,133.8 L 735.0,134.3 L 738.0,134.7 L 741.0,135.1 L 744.0,135.6 L 747.0,136.1 L 750.0,136.6 L 753.0,137.1 L 756.0,137.6 L 759.0,138.1 L 762.0,138.7 L 765.0,139.2 L 768.0,139.8 L 771.0,140.4 L 774.0,141.0 L 777.0,141.6 L 780.0,142.2 L 783.0,142.8 L 786.0,143.4 L 789.0,144.0 L 792.0,144.7 L 795.0,145.3 L 798.0,146.0 L 801.0,146.6 L 804.0,147.3 L 807.0,148.0 L 810.0,148.7 L 813.0,149.3 L 816.0,150.0 L 819.0,150.7 L 822.0,151.4 L 825.0,152.1 L 828.0,152.7 L 831.0,153.4 L 834.0,154.1 L 837.0,154.8 L 840.0,155.4 L 843.0,156.1 L 846.0,156.8 L 849.0,157.4 L 852.0,158.1 L 855.0,158.7 L 858.0,159.3 L 861.0,160.0 L 864.0,160.6 L 867.0,161.2 L 870.0,161.7 L 873.0,162.3 L 876.0,162.9 L 879.0,163.4 L 882.0,163.9 L 885.0,164.4 L 888.0,164.9 L 891.0,165.4 L 894.0,165.8 L 897.0,166.3 L 900.0,166.7 L 903.0,167.1 L 906.0,167.4 L 909.0,167.8 L 912.0,168.1 L 915.0,168.4 L 918.0,168.7 L 921.0,168.9 L 924.0,169.2 L 927.0,169.4 L 930.0,169.5 L 933.0,169.7 L 936.0,169.8 L 939.0,169.9 L 942.0,169.9 L 945.0,170.0 L 948.0,170.0 L 951.0,170.0 L 954.0,169.9 L 957.0,169.8 L 960.0,169.7 L 963.0,169.6 L 966.0,169.4 L 969.0,169.2 L 972.0,169.0 L 975.0,168.7 L 978.0,168.4 L 981.0,168.1 L 984.0,167.8 L 987.0,167.4 L 990.0,167.0 L 993.0,166.6 L 996.0,166.1 L 999.0,165.6 L 1002.0,165.1 L 1005.0,164.6 L 1008.0,164.0 L 1011.0,163.4 L 1014.0,162.8 L 1017.0,162.1 L 1020.0,161.5 L 1023.0,160.8 L 1026.0,160.1 L 1029.0,159.3 L 1032.0,158.6 L 1035.0,157.8 L 1038.0,157.0 L 1041.0,156.2 L 1044.0,155.4 L 1047.0,154.5 L 1050.0,153.6 L 1053.0,152.8 L 1056.0,151.9 L 1059.0,151.0 L 1062.0,150.0 L 1065.0,149.1 L 1068.0,148.1 L 1071.0,147.2 L 1074.0,146.2 L 1077.0,145.2 L 1080.0,144.3 L 1083.0,143.3 L 1086.0,142.3 L 1089.0,141.3 L 1092.0,140.3 L 1095.0,139.3 L 1098.0,138.3 L 1101.0,137.3 L 1104.0,136.3 L 1107.0,135.3 L 1110.0,134.3 L 1113.0,133.3 L 1116.0,132.3 L 1119.0,131.3 L 1122.0,130.3 L 1125.0,129.3 L 1128.0,128.4 L 1131.0,127.4 L 1134.0,126.5 L 1137.0,125.5 L 1140.0,124.6 L 1143.0,123.7 L 1146.0,122.8 L 1149.0,121.9 L 1152.0,121.1 L 1155.0,120.2 L 1158.0,119.4 L 1161.0,118.6 L 1164.0,117.8 L 1167.0,117.0 L 1170.0,116.3 L 1173.0,115.5 L 1176.0,114.8 L 1179.0,114.1 L 1182.0,113.4 L 1185.0,112.8 L 1188.0,112.1 L 1191.0,111.5 L 1194.0,110.9 L 1197.0,110.4 L 1200.0,109.8 L 1200,230 L 0,230 Z" fill="url(#w1)" opacity="0.88"/>
<path d="M 0.0,165.7 L 3.0,165.8 L 6.0,166.0 L 9.0,166.1 L 12.0,166.2 L 15.0,166.3 L 18.0,166.4 L 21.0,166.4 L 24.0,166.5 L 27.0,166.5 L 30.0,166.4 L 33.0,166.4 L 36.0,166.3 L 39.0,166.2 L 42.0,166.0 L 45.0,165.8 L 48.0,165.7 L 51.0,165.4 L 54.0,165.2 L 57.0,164.9 L 60.0,164.6 L 63.0,164.3 L 66.0,163.9 L 69.0,163.5 L 72.0,163.1 L 75.0,162.7 L 78.0,162.2 L 81.0,161.7 L 84.0,161.2 L 87.0,160.6 L 90.0,160.1 L 93.0,159.5 L 96.0,158.8 L 99.0,158.2 L 102.0,157.5 L 105.0,156.8 L 108.0,156.1 L 111.0,155.4 L 114.0,154.6 L 117.0,153.8 L 120.0,153.0 L 123.0,152.2 L 126.0,151.4 L 129.0,150.5 L 132.0,149.6 L 135.0,148.7 L 138.0,147.8 L 141.0,146.9 L 144.0,146.0 L 147.0,145.0 L 150.0,144.1 L 153.0,143.1 L 156.0,142.1 L 159.0,141.1 L 162.0,140.1 L 165.0,139.1 L 168.0,138.1 L 171.0,137.1 L 174.0,136.0 L 177.0,135.0 L 180.0,134.0 L 183.0,133.0 L 186.0,131.9 L 189.0,130.9 L 192.0,129.9 L 195.0,128.8 L 198.0,127.8 L 201.0,126.8 L 204.0,125.8 L 207.0,124.8 L 210.0,123.8 L 213.0,122.8 L 216.0,121.8 L 219.0,120.8 L 222.0,119.9 L 225.0,118.9 L 228.0,118.0 L 231.0,117.1 L 234.0,116.2 L 237.0,115.3 L 240.0,114.4 L 243.0,113.6 L 246.0,112.7 L 249.0,111.9 L 252.0,111.1 L 255.0,110.3 L 258.0,109.6 L 261.0,108.8 L 264.0,108.1 L 267.0,107.4 L 270.0,106.8 L 273.0,106.1 L 276.0,105.5 L 279.0,104.9 L 282.0,104.4 L 285.0,103.8 L 288.0,103.3 L 291.0,102.8 L 294.0,102.3 L 297.0,101.9 L 300.0,101.5 L 303.0,101.1 L 306.0,100.8 L 309.0,100.4 L 312.0,100.1 L 315.0,99.8 L 318.0,99.6 L 321.0,99.4 L 324.0,99.2 L 327.0,99.0 L 330.0,98.9 L 333.0,98.7 L 336.0,98.6 L 339.0,98.6 L 342.0,98.5 L 345.0,98.5 L 348.0,98.5 L 351.0,98.6 L 354.0,98.6 L 357.0,98.7 L 360.0,98.8 L 363.0,98.9 L 366.0,99.1 L 369.0,99.2 L 372.0,99.4 L 375.0,99.6 L 378.0,99.9 L 381.0,100.1 L 384.0,100.4 L 387.0,100.7 L 390.0,101.0 L 393.0,101.3 L 396.0,101.6 L 399.0,102.0 L 402.0,102.3 L 405.0,102.7 L 408.0,103.1 L 411.0,103.5 L 414.0,103.9 L 417.0,104.3 L 420.0,104.7 L 423.0,105.2 L 426.0,105.6 L 429.0,106.0 L 432.0,106.5 L 435.0,107.0 L 438.0,107.4 L 441.0,107.9 L 444.0,108.4 L 447.0,108.8 L 450.0,109.3 L 453.0,109.8 L 456.0,110.3 L 459.0,110.7 L 462.0,111.2 L 465.0,111.7 L 468.0,112.2 L 471.0,112.6 L 474.0,113.1 L 477.0,113.5 L 480.0,114.0 L 483.0,114.5 L 486.0,114.9 L 489.0,115.3 L 492.0,115.8 L 495.0,116.2 L 498.0,116.6 L 501.0,117.0 L 504.0,117.4 L 507.0,117.8 L 510.0,118.2 L 513.0,118.6 L 516.0,118.9 L 519.0,119.3 L 522.0,119.6 L 525.0,119.9 L 528.0,120.3 L 531.0,120.6 L 534.0,120.9 L 537.0,121.2 L 540.0,121.5 L 543.0,121.7 L 546.0,122.0 L 549.0,122.3 L 552.0,122.5 L 555.0,122.7 L 558.0,123.0 L 561.0,123.2 L 564.0,123.4 L 567.0,123.6 L 570.0,123.8 L 573.0,123.9 L 576.0,124.1 L 579.0,124.3 L 582.0,124.4 L 585.0,124.6 L 588.0,124.7 L 591.0,124.8 L 594.0,125.0 L 597.0,125.1 L 600.0,125.2 L 603.0,125.3 L 606.0,125.4 L 609.0,125.6 L 612.0,125.7 L 615.0,125.8 L 618.0,125.9 L 621.0,126.0 L 624.0,126.1 L 627.0,126.2 L 630.0,126.3 L 633.0,126.4 L 636.0,126.5 L 639.0,126.6 L 642.0,126.7 L 645.0,126.8 L 648.0,126.9 L 651.0,127.0 L 654.0,127.2 L 657.0,127.3 L 660.0,127.4 L 663.0,127.6 L 666.0,127.7 L 669.0,127.9 L 672.0,128.1 L 675.0,128.3 L 678.0,128.4 L 681.0,128.6 L 684.0,128.9 L 687.0,129.1 L 690.0,129.3 L 693.0,129.5 L 696.0,129.8 L 699.0,130.1 L 702.0,130.3 L 705.0,130.6 L 708.0,130.9 L 711.0,131.2 L 714.0,131.6 L 717.0,131.9 L 720.0,132.3 L 723.0,132.6 L 726.0,133.0 L 729.0,133.4 L 732.0,133.8 L 735.0,134.3 L 738.0,134.7 L 741.0,135.1 L 744.0,135.6 L 747.0,136.1 L 750.0,136.6 L 753.0,137.1 L 756.0,137.6 L 759.0,138.1 L 762.0,138.7 L 765.0,139.2 L 768.0,139.8 L 771.0,140.4 L 774.0,141.0 L 777.0,141.6 L 780.0,142.2 L 783.0,142.8 L 786.0,143.4 L 789.0,144.0 L 792.0,144.7 L 795.0,145.3 L 798.0,146.0 L 801.0,146.6 L 804.0,147.3 L 807.0,148.0 L 810.0,148.7 L 813.0,149.3 L 816.0,150.0 L 819.0,150.7 L 822.0,151.4 L 825.0,152.1 L 828.0,152.7 L 831.0,153.4 L 834.0,154.1 L 837.0,154.8 L 840.0,155.4 L 843.0,156.1 L 846.0,156.8 L 849.0,157.4 L 852.0,158.1 L 855.0,158.7 L 858.0,159.3 L 861.0,160.0 L 864.0,160.6 L 867.0,161.2 L 870.0,161.7 L 873.0,162.3 L 876.0,162.9 L 879.0,163.4 L 882.0,163.9 L 885.0,164.4 L 888.0,164.9 L 891.0,165.4 L 894.0,165.8 L 897.0,166.3 L 900.0,166.7 L 903.0,167.1 L 906.0,167.4 L 909.0,167.8 L 912.0,168.1 L 915.0,168.4 L 918.0,168.7 L 921.0,168.9 L 924.0,169.2 L 927.0,169.4 L 930.0,169.5 L 933.0,169.7 L 936.0,169.8 L 939.0,169.9 L 942.0,169.9 L 945.0,170.0 L 948.0,170.0 L 951.0,170.0 L 954.0,169.9 L 957.0,169.8 L 960.0,169.7 L 963.0,169.6 L 966.0,169.4 L 969.0,169.2 L 972.0,169.0 L 975.0,168.7 L 978.0,168.4 L 981.0,168.1 L 984.0,167.8 L 987.0,167.4 L 990.0,167.0 L 993.0,166.6 L 996.0,166.1 L 999.0,165.6 L 1002.0,165.1 L 1005.0,164.6 L 1008.0,164.0 L 1011.0,163.4 L 1014.0,162.8 L 1017.0,162.1 L 1020.0,161.5 L 1023.0,160.8 L 1026.0,160.1 L 1029.0,159.3 L 1032.0,158.6 L 1035.0,157.8 L 1038.0,157.0 L 1041.0,156.2 L 1044.0,155.4 L 1047.0,154.5 L 1050.0,153.6 L 1053.0,152.8 L 1056.0,151.9 L 1059.0,151.0 L 1062.0,150.0 L 1065.0,149.1 L 1068.0,148.1 L 1071.0,147.2 L 1074.0,146.2 L 1077.0,145.2 L 1080.0,144.3 L 1083.0,143.3 L 1086.0,142.3 L 1089.0,141.3 L 1092.0,140.3 L 1095.0,139.3 L 1098.0,138.3 L 1101.0,137.3 L 1104.0,136.3 L 1107.0,135.3 L 1110.0,134.3 L 1113.0,133.3 L 1116.0,132.3 L 1119.0,131.3 L 1122.0,130.3 L 1125.0,129.3 L 1128.0,128.4 L 1131.0,127.4 L 1134.0,126.5 L 1137.0,125.5 L 1140.0,124.6 L 1143.0,123.7 L 1146.0,122.8 L 1149.0,121.9 L 1152.0,121.1 L 1155.0,120.2 L 1158.0,119.4 L 1161.0,118.6 L 1164.0,117.8 L 1167.0,117.0 L 1170.0,116.3 L 1173.0,115.5 L 1176.0,114.8 L 1179.0,114.1 L 1182.0,113.4 L 1185.0,112.8 L 1188.0,112.1 L 1191.0,111.5 L 1194.0,110.9 L 1197.0,110.4 L 1200.0,109.8" fill="none" stroke="#36BCF7" stroke-opacity="0.55" stroke-width="2.2" stroke-linecap="round"/>
<path d="M 0,164.9 L 3.0,164.1 L 6.0,163.3 L 9.0,162.4 L 12.0,161.5 L 15.0,160.6 L 18.0,159.6 L 21.0,158.7 L 24.0,157.7 L 27.0,156.6 L 30.0,155.6 L 33.0,154.5 L 36.0,153.5 L 39.0,152.4 L 42.0,151.3 L 45.0,150.2 L 48.0,149.1 L 51.0,147.9 L 54.0,146.8 L 57.0,145.7 L 60.0,144.6 L 63.0,143.5 L 66.0,142.3 L 69.0,141.2 L 72.0,140.1 L 75.0,139.1 L 78.0,138.0 L 81.0,136.9 L 84.0,135.9 L 87.0,134.9 L 90.0,133.9 L 93.0,133.0 L 96.0,132.0 L 99.0,131.1 L 102.0,130.3 L 105.0,129.4 L 108.0,128.6 L 111.0,127.9 L 114.0,127.2 L 117.0,126.5 L 120.0,125.9 L 123.0,125.3 L 126.0,124.7 L 129.0,124.2 L 132.0,123.8 L 135.0,123.4 L 138.0,123.0 L 141.0,122.7 L 144.0,122.5 L 147.0,122.3 L 150.0,122.1 L 153.0,122.1 L 156.0,122.0 L 159.0,122.0 L 162.0,122.1 L 165.0,122.2 L 168.0,122.4 L 171.0,122.6 L 174.0,122.9 L 177.0,123.2 L 180.0,123.6 L 183.0,124.0 L 186.0,124.5 L 189.0,125.0 L 192.0,125.6 L 195.0,126.2 L 198.0,126.8 L 201.0,127.5 L 204.0,128.2 L 207.0,129.0 L 210.0,129.8 L 213.0,130.7 L 216.0,131.5 L 219.0,132.4 L 222.0,133.3 L 225.0,134.3 L 228.0,135.3 L 231.0,136.3 L 234.0,137.3 L 237.0,138.3 L 240.0,139.4 L 243.0,140.4 L 246.0,141.5 L 249.0,142.5 L 252.0,143.6 L 255.0,144.7 L 258.0,145.8 L 261.0,146.9 L 264.0,148.0 L 267.0,149.0 L 270.0,150.1 L 273.0,151.2 L 276.0,152.2 L 279.0,153.2 L 282.0,154.2 L 285.0,155.2 L 288.0,156.2 L 291.0,157.2 L 294.0,158.1 L 297.0,159.0 L 300.0,159.9 L 303.0,160.8 L 306.0,161.6 L 309.0,162.4 L 312.0,163.2 L 315.0,164.0 L 318.0,164.7 L 321.0,165.4 L 324.0,166.0 L 327.0,166.6 L 330.0,167.2 L 333.0,167.8 L 336.0,168.3 L 339.0,168.8 L 342.0,169.3 L 345.0,169.7 L 348.0,170.1 L 351.0,170.4 L 354.0,170.8 L 357.0,171.1 L 360.0,171.3 L 363.0,171.6 L 366.0,171.8 L 369.0,172.0 L 372.0,172.1 L 375.0,172.2 L 378.0,172.3 L 381.0,172.4 L 384.0,172.5 L 387.0,172.5 L 390.0,172.5 L 393.0,172.5 L 396.0,172.5 L 399.0,172.5 L 402.0,172.4 L 405.0,172.4 L 408.0,172.3 L 411.0,172.2 L 414.0,172.1 L 417.0,172.0 L 420.0,171.9 L 423.0,171.8 L 426.0,171.6 L 429.0,171.5 L 432.0,171.4 L 435.0,171.3 L 438.0,171.1 L 441.0,171.0 L 444.0,170.9 L 447.0,170.8 L 450.0,170.7 L 453.0,170.6 L 456.0,170.5 L 459.0,170.4 L 462.0,170.3 L 465.0,170.2 L 468.0,170.1 L 471.0,170.1 L 474.0,170.0 L 477.0,170.0 L 480.0,169.9 L 483.0,169.9 L 486.0,169.9 L 489.0,169.8 L 492.0,169.8 L 495.0,169.8 L 498.0,169.9 L 501.0,169.9 L 504.0,169.9 L 507.0,169.9 L 510.0,170.0 L 513.0,170.0 L 516.0,170.0 L 519.0,170.1 L 522.0,170.1 L 525.0,170.2 L 528.0,170.2 L 531.0,170.3 L 534.0,170.3 L 537.0,170.4 L 540.0,170.4 L 543.0,170.4 L 546.0,170.4 L 549.0,170.4 L 552.0,170.4 L 555.0,170.4 L 558.0,170.4 L 561.0,170.3 L 564.0,170.3 L 567.0,170.2 L 570.0,170.1 L 573.0,170.0 L 576.0,169.9 L 579.0,169.7 L 582.0,169.5 L 585.0,169.3 L 588.0,169.1 L 591.0,168.9 L 594.0,168.6 L 597.0,168.3 L 600.0,167.9 L 603.0,167.6 L 606.0,167.2 L 609.0,166.8 L 612.0,166.3 L 615.0,165.8 L 618.0,165.3 L 621.0,164.8 L 624.0,164.2 L 627.0,163.6 L 630.0,163.0 L 633.0,162.3 L 636.0,161.6 L 639.0,160.9 L 642.0,160.2 L 645.0,159.4 L 648.0,158.6 L 651.0,157.8 L 654.0,156.9 L 657.0,156.0 L 660.0,155.1 L 663.0,154.2 L 666.0,153.3 L 669.0,152.3 L 672.0,151.4 L 675.0,150.4 L 678.0,149.4 L 681.0,148.4 L 684.0,147.4 L 687.0,146.3 L 690.0,145.3 L 693.0,144.3 L 696.0,143.3 L 699.0,142.2 L 702.0,141.2 L 705.0,140.2 L 708.0,139.2 L 711.0,138.2 L 714.0,137.2 L 717.0,136.2 L 720.0,135.2 L 723.0,134.3 L 726.0,133.4 L 729.0,132.5 L 732.0,131.6 L 735.0,130.8 L 738.0,129.9 L 741.0,129.2 L 744.0,128.4 L 747.0,127.7 L 750.0,127.0 L 753.0,126.4 L 756.0,125.8 L 759.0,125.2 L 762.0,124.7 L 765.0,124.2 L 768.0,123.8 L 771.0,123.4 L 774.0,123.1 L 777.0,122.8 L 780.0,122.6 L 783.0,122.4 L 786.0,122.3 L 789.0,122.2 L 792.0,122.2 L 795.0,122.2 L 798.0,122.3 L 801.0,122.5 L 804.0,122.6 L 807.0,122.9 L 810.0,123.2 L 813.0,123.5 L 816.0,123.9 L 819.0,124.4 L 822.0,124.9 L 825.0,125.4 L 828.0,126.0 L 831.0,126.6 L 834.0,127.3 L 837.0,128.0 L 840.0,128.8 L 843.0,129.6 L 846.0,130.4 L 849.0,131.3 L 852.0,132.2 L 855.0,133.1 L 858.0,134.1 L 861.0,135.1 L 864.0,136.1 L 867.0,137.2 L 870.0,138.3 L 873.0,139.4 L 876.0,140.5 L 879.0,141.6 L 882.0,142.7 L 885.0,143.9 L 888.0,145.0 L 891.0,146.2 L 894.0,147.4 L 897.0,148.5 L 900.0,149.7 L 903.0,150.8 L 906.0,152.0 L 909.0,153.1 L 912.0,154.3 L 915.0,155.4 L 918.0,156.5 L 921.0,157.6 L 924.0,158.7 L 927.0,159.7 L 930.0,160.7 L 933.0,161.7 L 936.0,162.7 L 939.0,163.7 L 942.0,164.6 L 945.0,165.5 L 948.0,166.4 L 951.0,167.2 L 954.0,168.0 L 957.0,168.7 L 960.0,169.5 L 963.0,170.2 L 966.0,170.8 L 969.0,171.4 L 972.0,172.0 L 975.0,172.5 L 978.0,173.1 L 981.0,173.5 L 984.0,173.9 L 987.0,174.3 L 990.0,174.7 L 993.0,175.0 L 996.0,175.3 L 999.0,175.5 L 1002.0,175.7 L 1005.0,175.9 L 1008.0,176.1 L 1011.0,176.2 L 1014.0,176.3 L 1017.0,176.3 L 1020.0,176.3 L 1023.0,176.3 L 1026.0,176.3 L 1029.0,176.2 L 1032.0,176.1 L 1035.0,176.0 L 1038.0,175.9 L 1041.0,175.7 L 1044.0,175.5 L 1047.0,175.4 L 1050.0,175.1 L 1053.0,174.9 L 1056.0,174.7 L 1059.0,174.5 L 1062.0,174.2 L 1065.0,173.9 L 1068.0,173.7 L 1071.0,173.4 L 1074.0,173.1 L 1077.0,172.8 L 1080.0,172.5 L 1083.0,172.3 L 1086.0,172.0 L 1089.0,171.7 L 1092.0,171.4 L 1095.0,171.1 L 1098.0,170.9 L 1101.0,170.6 L 1104.0,170.3 L 1107.0,170.1 L 1110.0,169.8 L 1113.0,169.6 L 1116.0,169.4 L 1119.0,169.2 L 1122.0,169.0 L 1125.0,168.8 L 1128.0,168.6 L 1131.0,168.4 L 1134.0,168.2 L 1137.0,168.1 L 1140.0,167.9 L 1143.0,167.8 L 1146.0,167.7 L 1149.0,167.5 L 1152.0,167.4 L 1155.0,167.3 L 1158.0,167.2 L 1161.0,167.1 L 1164.0,167.0 L 1167.0,166.9 L 1170.0,166.9 L 1173.0,166.8 L 1176.0,166.7 L 1179.0,166.6 L 1182.0,166.5 L 1185.0,166.4 L 1188.0,166.4 L 1191.0,166.3 L 1194.0,166.2 L 1197.0,166.1 L 1200.0,166.0 L 1200,230 L 0,230 Z" fill="url(#w2)" opacity="0.76"/>
<path d="M 0.0,164.9 L 3.0,164.1 L 6.0,163.3 L 9.0,162.4 L 12.0,161.5 L 15.0,160.6 L 18.0,159.6 L 21.0,158.7 L 24.0,157.7 L 27.0,156.6 L 30.0,155.6 L 33.0,154.5 L 36.0,153.5 L 39.0,152.4 L 42.0,151.3 L 45.0,150.2 L 48.0,149.1 L 51.0,147.9 L 54.0,146.8 L 57.0,145.7 L 60.0,144.6 L 63.0,143.5 L 66.0,142.3 L 69.0,141.2 L 72.0,140.1 L 75.0,139.1 L 78.0,138.0 L 81.0,136.9 L 84.0,135.9 L 87.0,134.9 L 90.0,133.9 L 93.0,133.0 L 96.0,132.0 L 99.0,131.1 L 102.0,130.3 L 105.0,129.4 L 108.0,128.6 L 111.0,127.9 L 114.0,127.2 L 117.0,126.5 L 120.0,125.9 L 123.0,125.3 L 126.0,124.7 L 129.0,124.2 L 132.0,123.8 L 135.0,123.4 L 138.0,123.0 L 141.0,122.7 L 144.0,122.5 L 147.0,122.3 L 150.0,122.1 L 153.0,122.1 L 156.0,122.0 L 159.0,122.0 L 162.0,122.1 L 165.0,122.2 L 168.0,122.4 L 171.0,122.6 L 174.0,122.9 L 177.0,123.2 L 180.0,123.6 L 183.0,124.0 L 186.0,124.5 L 189.0,125.0 L 192.0,125.6 L 195.0,126.2 L 198.0,126.8 L 201.0,127.5 L 204.0,128.2 L 207.0,129.0 L 210.0,129.8 L 213.0,130.7 L 216.0,131.5 L 219.0,132.4 L 222.0,133.3 L 225.0,134.3 L 228.0,135.3 L 231.0,136.3 L 234.0,137.3 L 237.0,138.3 L 240.0,139.4 L 243.0,140.4 L 246.0,141.5 L 249.0,142.5 L 252.0,143.6 L 255.0,144.7 L 258.0,145.8 L 261.0,146.9 L 264.0,148.0 L 267.0,149.0 L 270.0,150.1 L 273.0,151.2 L 276.0,152.2 L 279.0,153.2 L 282.0,154.2 L 285.0,155.2 L 288.0,156.2 L 291.0,157.2 L 294.0,158.1 L 297.0,159.0 L 300.0,159.9 L 303.0,160.8 L 306.0,161.6 L 309.0,162.4 L 312.0,163.2 L 315.0,164.0 L 318.0,164.7 L 321.0,165.4 L 324.0,166.0 L 327.0,166.6 L 330.0,167.2 L 333.0,167.8 L 336.0,168.3 L 339.0,168.8 L 342.0,169.3 L 345.0,169.7 L 348.0,170.1 L 351.0,170.4 L 354.0,170.8 L 357.0,171.1 L 360.0,171.3 L 363.0,171.6 L 366.0,171.8 L 369.0,172.0 L 372.0,172.1 L 375.0,172.2 L 378.0,172.3 L 381.0,172.4 L 384.0,172.5 L 387.0,172.5 L 390.0,172.5 L 393.0,172.5 L 396.0,172.5 L 399.0,172.5 L 402.0,172.4 L 405.0,172.4 L 408.0,172.3 L 411.0,172.2 L 414.0,172.1 L 417.0,172.0 L 420.0,171.9 L 423.0,171.8 L 426.0,171.6 L 429.0,171.5 L 432.0,171.4 L 435.0,171.3 L 438.0,171.1 L 441.0,171.0 L 444.0,170.9 L 447.0,170.8 L 450.0,170.7 L 453.0,170.6 L 456.0,170.5 L 459.0,170.4 L 462.0,170.3 L 465.0,170.2 L 468.0,170.1 L 471.0,170.1 L 474.0,170.0 L 477.0,170.0 L 480.0,169.9 L 483.0,169.9 L 486.0,169.9 L 489.0,169.8 L 492.0,169.8 L 495.0,169.8 L 498.0,169.9 L 501.0,169.9 L 504.0,169.9 L 507.0,169.9 L 510.0,170.0 L 513.0,170.0 L 516.0,170.0 L 519.0,170.1 L 522.0,170.1 L 525.0,170.2 L 528.0,170.2 L 531.0,170.3 L 534.0,170.3 L 537.0,170.4 L 540.0,170.4 L 543.0,170.4 L 546.0,170.4 L 549.0,170.4 L 552.0,170.4 L 555.0,170.4 L 558.0,170.4 L 561.0,170.3 L 564.0,170.3 L 567.0,170.2 L 570.0,170.1 L 573.0,170.0 L 576.0,169.9 L 579.0,169.7 L 582.0,169.5 L 585.0,169.3 L 588.0,169.1 L 591.0,168.9 L 594.0,168.6 L 597.0,168.3 L 600.0,167.9 L 603.0,167.6 L 606.0,167.2 L 609.0,166.8 L 612.0,166.3 L 615.0,165.8 L 618.0,165.3 L 621.0,164.8 L 624.0,164.2 L 627.0,163.6 L 630.0,163.0 L 633.0,162.3 L 636.0,161.6 L 639.0,160.9 L 642.0,160.2 L 645.0,159.4 L 648.0,158.6 L 651.0,157.8 L 654.0,156.9 L 657.0,156.0 L 660.0,155.1 L 663.0,154.2 L 666.0,153.3 L 669.0,152.3 L 672.0,151.4 L 675.0,150.4 L 678.0,149.4 L 681.0,148.4 L 684.0,147.4 L 687.0,146.3 L 690.0,145.3 L 693.0,144.3 L 696.0,143.3 L 699.0,142.2 L 702.0,141.2 L 705.0,140.2 L 708.0,139.2 L 711.0,138.2 L 714.0,137.2 L 717.0,136.2 L 720.0,135.2 L 723.0,134.3 L 726.0,133.4 L 729.0,132.5 L 732.0,131.6 L 735.0,130.8 L 738.0,129.9 L 741.0,129.2 L 744.0,128.4 L 747.0,127.7 L 750.0,127.0 L 753.0,126.4 L 756.0,125.8 L 759.0,125.2 L 762.0,124.7 L 765.0,124.2 L 768.0,123.8 L 771.0,123.4 L 774.0,123.1 L 777.0,122.8 L 780.0,122.6 L 783.0,122.4 L 786.0,122.3 L 789.0,122.2 L 792.0,122.2 L 795.0,122.2 L 798.0,122.3 L 801.0,122.5 L 804.0,122.6 L 807.0,122.9 L 810.0,123.2 L 813.0,123.5 L 816.0,123.9 L 819.0,124.4 L 822.0,124.9 L 825.0,125.4 L 828.0,126.0 L 831.0,126.6 L 834.0,127.3 L 837.0,128.0 L 840.0,128.8 L 843.0,129.6 L 846.0,130.4 L 849.0,131.3 L 852.0,132.2 L 855.0,133.1 L 858.0,134.1 L 861.0,135.1 L 864.0,136.1 L 867.0,137.2 L 870.0,138.3 L 873.0,139.4 L 876.0,140.5 L 879.0,141.6 L 882.0,142.7 L 885.0,143.9 L 888.0,145.0 L 891.0,146.2 L 894.0,147.4 L 897.0,148.5 L 900.0,149.7 L 903.0,150.8 L 906.0,152.0 L 909.0,153.1 L 912.0,154.3 L 915.0,155.4 L 918.0,156.5 L 921.0,157.6 L 924.0,158.7 L 927.0,159.7 L 930.0,160.7 L 933.0,161.7 L 936.0,162.7 L 939.0,163.7 L 942.0,164.6 L 945.0,165.5 L 948.0,166.4 L 951.0,167.2 L 954.0,168.0 L 957.0,168.7 L 960.0,169.5 L 963.0,170.2 L 966.0,170.8 L 969.0,171.4 L 972.0,172.0 L 975.0,172.5 L 978.0,173.1 L 981.0,173.5 L 984.0,173.9 L 987.0,174.3 L 990.0,174.7 L 993.0,175.0 L 996.0,175.3 L 999.0,175.5 L 1002.0,175.7 L 1005.0,175.9 L 1008.0,176.1 L 1011.0,176.2 L 1014.0,176.3 L 1017.0,176.3 L 1020.0,176.3 L 1023.0,176.3 L 1026.0,176.3 L 1029.0,176.2 L 1032.0,176.1 L 1035.0,176.0 L 1038.0,175.9 L 1041.0,175.7 L 1044.0,175.5 L 1047.0,175.4 L 1050.0,175.1 L 1053.0,174.9 L 1056.0,174.7 L 1059.0,174.5 L 1062.0,174.2 L 1065.0,173.9 L 1068.0,173.7 L 1071.0,173.4 L 1074.0,173.1 L 1077.0,172.8 L 1080.0,172.5 L 1083.0,172.3 L 1086.0,172.0 L 1089.0,171.7 L 1092.0,171.4 L 1095.0,171.1 L 1098.0,170.9 L 1101.0,170.6 L 1104.0,170.3 L 1107.0,170.1 L 1110.0,169.8 L 1113.0,169.6 L 1116.0,169.4 L 1119.0,169.2 L 1122.0,169.0 L 1125.0,168.8 L 1128.0,168.6 L 1131.0,168.4 L 1134.0,168.2 L 1137.0,168.1 L 1140.0,167.9 L 1143.0,167.8 L 1146.0,167.7 L 1149.0,167.5 L 1152.0,167.4 L 1155.0,167.3 L 1158.0,167.2 L 1161.0,167.1 L 1164.0,167.0 L 1167.0,166.9 L 1170.0,166.9 L 1173.0,166.8 L 1176.0,166.7 L 1179.0,166.6 L 1182.0,166.5 L 1185.0,166.4 L 1188.0,166.4 L 1191.0,166.3 L 1194.0,166.2 L 1197.0,166.1 L 1200.0,166.0" fill="none" stroke="#5AD3F5" stroke-opacity="0.6" stroke-width="2.4" stroke-linecap="round"/>
<path d="M 0,193.2 L 3.0,193.2 L 6.0,193.1 L 9.0,193.1 L 12.0,193.0 L 15.0,192.9 L 18.0,192.7 L 21.0,192.6 L 24.0,192.4 L 27.0,192.2 L 30.0,192.1 L 33.0,191.9 L 36.0,191.7 L 39.0,191.4 L 42.0,191.2 L 45.0,191.0 L 48.0,190.9 L 51.0,190.7 L 54.0,190.5 L 57.0,190.3 L 60.0,190.2 L 63.0,190.0 L 66.0,189.9 L 69.0,189.8 L 72.0,189.7 L 75.0,189.6 L 78.0,189.5 L 81.0,189.4 L 84.0,189.4 L 87.0,189.4 L 90.0,189.3 L 93.0,189.3 L 96.0,189.3 L 99.0,189.3 L 102.0,189.3 L 105.0,189.3 L 108.0,189.3 L 111.0,189.3 L 114.0,189.3 L 117.0,189.3 L 120.0,189.2 L 123.0,189.2 L 126.0,189.1 L 129.0,189.0 L 132.0,188.9 L 135.0,188.8 L 138.0,188.6 L 141.0,188.4 L 144.0,188.2 L 147.0,187.9 L 150.0,187.7 L 153.0,187.3 L 156.0,186.9 L 159.0,186.5 L 162.0,186.1 L 165.0,185.6 L 168.0,185.0 L 171.0,184.4 L 174.0,183.8 L 177.0,183.1 L 180.0,182.4 L 183.0,181.6 L 186.0,180.8 L 189.0,180.0 L 192.0,179.1 L 195.0,178.2 L 198.0,177.3 L 201.0,176.3 L 204.0,175.3 L 207.0,174.2 L 210.0,173.2 L 213.0,172.1 L 216.0,171.1 L 219.0,170.0 L 222.0,168.9 L 225.0,167.8 L 228.0,166.7 L 231.0,165.6 L 234.0,164.6 L 237.0,163.5 L 240.0,162.5 L 243.0,161.5 L 246.0,160.6 L 249.0,159.7 L 252.0,158.8 L 255.0,158.0 L 258.0,157.2 L 261.0,156.5 L 264.0,155.9 L 267.0,155.3 L 270.0,154.8 L 273.0,154.3 L 276.0,154.0 L 279.0,153.7 L 282.0,153.5 L 285.0,153.3 L 288.0,153.3 L 291.0,153.3 L 294.0,153.5 L 297.0,153.7 L 300.0,154.0 L 303.0,154.3 L 306.0,154.8 L 309.0,155.4 L 312.0,156.0 L 315.0,156.7 L 318.0,157.5 L 321.0,158.4 L 324.0,159.3 L 327.0,160.3 L 330.0,161.4 L 333.0,162.5 L 336.0,163.7 L 339.0,165.0 L 342.0,166.3 L 345.0,167.6 L 348.0,169.0 L 351.0,170.4 L 354.0,171.8 L 357.0,173.3 L 360.0,174.7 L 363.0,176.2 L 366.0,177.7 L 369.0,179.2 L 372.0,180.6 L 375.0,182.1 L 378.0,183.5 L 381.0,184.9 L 384.0,186.3 L 387.0,187.6 L 390.0,188.9 L 393.0,190.2 L 396.0,191.4 L 399.0,192.6 L 402.0,193.7 L 405.0,194.7 L 408.0,195.7 L 411.0,196.6 L 414.0,197.4 L 417.0,198.2 L 420.0,198.9 L 423.0,199.5 L 426.0,200.0 L 429.0,200.5 L 432.0,200.9 L 435.0,201.2 L 438.0,201.4 L 441.0,201.5 L 444.0,201.6 L 447.0,201.6 L 450.0,201.6 L 453.0,201.4 L 456.0,201.2 L 459.0,200.9 L 462.0,200.6 L 465.0,200.2 L 468.0,199.8 L 471.0,199.3 L 474.0,198.8 L 477.0,198.2 L 480.0,197.6 L 483.0,196.9 L 486.0,196.2 L 489.0,195.5 L 492.0,194.8 L 495.0,194.0 L 498.0,193.2 L 501.0,192.4 L 504.0,191.7 L 507.0,190.9 L 510.0,190.1 L 513.0,189.3 L 516.0,188.5 L 519.0,187.8 L 522.0,187.0 L 525.0,186.3 L 528.0,185.6 L 531.0,184.9 L 534.0,184.2 L 537.0,183.6 L 540.0,183.0 L 543.0,182.4 L 546.0,181.8 L 549.0,181.3 L 552.0,180.8 L 555.0,180.3 L 558.0,179.9 L 561.0,179.5 L 564.0,179.1 L 567.0,178.7 L 570.0,178.4 L 573.0,178.1 L 576.0,177.8 L 579.0,177.5 L 582.0,177.2 L 585.0,177.0 L 588.0,176.8 L 591.0,176.6 L 594.0,176.4 L 597.0,176.2 L 600.0,176.0 L 603.0,175.8 L 606.0,175.6 L 609.0,175.4 L 612.0,175.2 L 615.0,175.0 L 618.0,174.8 L 621.0,174.5 L 624.0,174.3 L 627.0,174.0 L 630.0,173.8 L 633.0,173.5 L 636.0,173.1 L 639.0,172.8 L 642.0,172.4 L 645.0,172.1 L 648.0,171.7 L 651.0,171.3 L 654.0,170.8 L 657.0,170.4 L 660.0,169.9 L 663.0,169.4 L 666.0,168.9 L 669.0,168.4 L 672.0,167.8 L 675.0,167.3 L 678.0,166.7 L 681.0,166.2 L 684.0,165.6 L 687.0,165.1 L 690.0,164.5 L 693.0,164.0 L 696.0,163.4 L 699.0,162.9 L 702.0,162.4 L 705.0,162.0 L 708.0,161.5 L 711.0,161.1 L 714.0,160.8 L 717.0,160.4 L 720.0,160.1 L 723.0,159.9 L 726.0,159.7 L 729.0,159.5 L 732.0,159.4 L 735.0,159.4 L 738.0,159.4 L 741.0,159.5 L 744.0,159.6 L 747.0,159.8 L 750.0,160.1 L 753.0,160.5 L 756.0,160.9 L 759.0,161.4 L 762.0,161.9 L 765.0,162.5 L 768.0,163.2 L 771.0,164.0 L 774.0,164.8 L 777.0,165.7 L 780.0,166.6 L 783.0,167.6 L 786.0,168.7 L 789.0,169.8 L 792.0,171.0 L 795.0,172.2 L 798.0,173.5 L 801.0,174.8 L 804.0,176.1 L 807.0,177.4 L 810.0,178.8 L 813.0,180.2 L 816.0,181.6 L 819.0,183.0 L 822.0,184.5 L 825.0,185.9 L 828.0,187.3 L 831.0,188.7 L 834.0,190.0 L 837.0,191.4 L 840.0,192.7 L 843.0,194.0 L 846.0,195.2 L 849.0,196.4 L 852.0,197.5 L 855.0,198.6 L 858.0,199.6 L 861.0,200.6 L 864.0,201.4 L 867.0,202.2 L 870.0,203.0 L 873.0,203.6 L 876.0,204.2 L 879.0,204.7 L 882.0,205.1 L 885.0,205.4 L 888.0,205.6 L 891.0,205.7 L 894.0,205.8 L 897.0,205.7 L 900.0,205.6 L 903.0,205.4 L 906.0,205.1 L 909.0,204.7 L 912.0,204.2 L 915.0,203.7 L 918.0,203.0 L 921.0,202.3 L 924.0,201.6 L 927.0,200.7 L 930.0,199.8 L 933.0,198.9 L 936.0,197.9 L 939.0,196.8 L 942.0,195.7 L 945.0,194.6 L 948.0,193.4 L 951.0,192.2 L 954.0,191.0 L 957.0,189.8 L 960.0,188.5 L 963.0,187.3 L 966.0,186.0 L 969.0,184.8 L 972.0,183.5 L 975.0,182.3 L 978.0,181.1 L 981.0,179.9 L 984.0,178.7 L 987.0,177.6 L 990.0,176.5 L 993.0,175.4 L 996.0,174.4 L 999.0,173.4 L 1002.0,172.5 L 1005.0,171.6 L 1008.0,170.8 L 1011.0,170.0 L 1014.0,169.3 L 1017.0,168.6 L 1020.0,168.0 L 1023.0,167.5 L 1026.0,166.9 L 1029.0,166.5 L 1032.0,166.1 L 1035.0,165.8 L 1038.0,165.5 L 1041.0,165.2 L 1044.0,165.0 L 1047.0,164.9 L 1050.0,164.8 L 1053.0,164.7 L 1056.0,164.7 L 1059.0,164.7 L 1062.0,164.7 L 1065.0,164.8 L 1068.0,164.9 L 1071.0,165.0 L 1074.0,165.2 L 1077.0,165.3 L 1080.0,165.5 L 1083.0,165.7 L 1086.0,165.9 L 1089.0,166.1 L 1092.0,166.3 L 1095.0,166.6 L 1098.0,166.8 L 1101.0,167.0 L 1104.0,167.2 L 1107.0,167.4 L 1110.0,167.6 L 1113.0,167.7 L 1116.0,167.9 L 1119.0,168.0 L 1122.0,168.2 L 1125.0,168.3 L 1128.0,168.4 L 1131.0,168.5 L 1134.0,168.6 L 1137.0,168.6 L 1140.0,168.7 L 1143.0,168.7 L 1146.0,168.8 L 1149.0,168.8 L 1152.0,168.8 L 1155.0,168.8 L 1158.0,168.8 L 1161.0,168.8 L 1164.0,168.9 L 1167.0,168.9 L 1170.0,168.9 L 1173.0,168.9 L 1176.0,169.0 L 1179.0,169.0 L 1182.0,169.1 L 1185.0,169.2 L 1188.0,169.3 L 1191.0,169.5 L 1194.0,169.6 L 1197.0,169.8 L 1200.0,170.1 L 1200,230 L 0,230 Z" fill="url(#w3)" opacity="0.62"/>
<path d="M 0.0,193.2 L 3.0,193.2 L 6.0,193.1 L 9.0,193.1 L 12.0,193.0 L 15.0,192.9 L 18.0,192.7 L 21.0,192.6 L 24.0,192.4 L 27.0,192.2 L 30.0,192.1 L 33.0,191.9 L 36.0,191.7 L 39.0,191.4 L 42.0,191.2 L 45.0,191.0 L 48.0,190.9 L 51.0,190.7 L 54.0,190.5 L 57.0,190.3 L 60.0,190.2 L 63.0,190.0 L 66.0,189.9 L 69.0,189.8 L 72.0,189.7 L 75.0,189.6 L 78.0,189.5 L 81.0,189.4 L 84.0,189.4 L 87.0,189.4 L 90.0,189.3 L 93.0,189.3 L 96.0,189.3 L 99.0,189.3 L 102.0,189.3 L 105.0,189.3 L 108.0,189.3 L 111.0,189.3 L 114.0,189.3 L 117.0,189.3 L 120.0,189.2 L 123.0,189.2 L 126.0,189.1 L 129.0,189.0 L 132.0,188.9 L 135.0,188.8 L 138.0,188.6 L 141.0,188.4 L 144.0,188.2 L 147.0,187.9 L 150.0,187.7 L 153.0,187.3 L 156.0,186.9 L 159.0,186.5 L 162.0,186.1 L 165.0,185.6 L 168.0,185.0 L 171.0,184.4 L 174.0,183.8 L 177.0,183.1 L 180.0,182.4 L 183.0,181.6 L 186.0,180.8 L 189.0,180.0 L 192.0,179.1 L 195.0,178.2 L 198.0,177.3 L 201.0,176.3 L 204.0,175.3 L 207.0,174.2 L 210.0,173.2 L 213.0,172.1 L 216.0,171.1 L 219.0,170.0 L 222.0,168.9 L 225.0,167.8 L 228.0,166.7 L 231.0,165.6 L 234.0,164.6 L 237.0,163.5 L 240.0,162.5 L 243.0,161.5 L 246.0,160.6 L 249.0,159.7 L 252.0,158.8 L 255.0,158.0 L 258.0,157.2 L 261.0,156.5 L 264.0,155.9 L 267.0,155.3 L 270.0,154.8 L 273.0,154.3 L 276.0,154.0 L 279.0,153.7 L 282.0,153.5 L 285.0,153.3 L 288.0,153.3 L 291.0,153.3 L 294.0,153.5 L 297.0,153.7 L 300.0,154.0 L 303.0,154.3 L 306.0,154.8 L 309.0,155.4 L 312.0,156.0 L 315.0,156.7 L 318.0,157.5 L 321.0,158.4 L 324.0,159.3 L 327.0,160.3 L 330.0,161.4 L 333.0,162.5 L 336.0,163.7 L 339.0,165.0 L 342.0,166.3 L 345.0,167.6 L 348.0,169.0 L 351.0,170.4 L 354.0,171.8 L 357.0,173.3 L 360.0,174.7 L 363.0,176.2 L 366.0,177.7 L 369.0,179.2 L 372.0,180.6 L 375.0,182.1 L 378.0,183.5 L 381.0,184.9 L 384.0,186.3 L 387.0,187.6 L 390.0,188.9 L 393.0,190.2 L 396.0,191.4 L 399.0,192.6 L 402.0,193.7 L 405.0,194.7 L 408.0,195.7 L 411.0,196.6 L 414.0,197.4 L 417.0,198.2 L 420.0,198.9 L 423.0,199.5 L 426.0,200.0 L 429.0,200.5 L 432.0,200.9 L 435.0,201.2 L 438.0,201.4 L 441.0,201.5 L 444.0,201.6 L 447.0,201.6 L 450.0,201.6 L 453.0,201.4 L 456.0,201.2 L 459.0,200.9 L 462.0,200.6 L 465.0,200.2 L 468.0,199.8 L 471.0,199.3 L 474.0,198.8 L 477.0,198.2 L 480.0,197.6 L 483.0,196.9 L 486.0,196.2 L 489.0,195.5 L 492.0,194.8 L 495.0,194.0 L 498.0,193.2 L 501.0,192.4 L 504.0,191.7 L 507.0,190.9 L 510.0,190.1 L 513.0,189.3 L 516.0,188.5 L 519.0,187.8 L 522.0,187.0 L 525.0,186.3 L 528.0,185.6 L 531.0,184.9 L 534.0,184.2 L 537.0,183.6 L 540.0,183.0 L 543.0,182.4 L 546.0,181.8 L 549.0,181.3 L 552.0,180.8 L 555.0,180.3 L 558.0,179.9 L 561.0,179.5 L 564.0,179.1 L 567.0,178.7 L 570.0,178.4 L 573.0,178.1 L 576.0,177.8 L 579.0,177.5 L 582.0,177.2 L 585.0,177.0 L 588.0,176.8 L 591.0,176.6 L 594.0,176.4 L 597.0,176.2 L 600.0,176.0 L 603.0,175.8 L 606.0,175.6 L 609.0,175.4 L 612.0,175.2 L 615.0,175.0 L 618.0,174.8 L 621.0,174.5 L 624.0,174.3 L 627.0,174.0 L 630.0,173.8 L 633.0,173.5 L 636.0,173.1 L 639.0,172.8 L 642.0,172.4 L 645.0,172.1 L 648.0,171.7 L 651.0,171.3 L 654.0,170.8 L 657.0,170.4 L 660.0,169.9 L 663.0,169.4 L 666.0,168.9 L 669.0,168.4 L 672.0,167.8 L 675.0,167.3 L 678.0,166.7 L 681.0,166.2 L 684.0,165.6 L 687.0,165.1 L 690.0,164.5 L 693.0,164.0 L 696.0,163.4 L 699.0,162.9 L 702.0,162.4 L 705.0,162.0 L 708.0,161.5 L 711.0,161.1 L 714.0,160.8 L 717.0,160.4 L 720.0,160.1 L 723.0,159.9 L 726.0,159.7 L 729.0,159.5 L 732.0,159.4 L 735.0,159.4 L 738.0,159.4 L 741.0,159.5 L 744.0,159.6 L 747.0,159.8 L 750.0,160.1 L 753.0,160.5 L 756.0,160.9 L 759.0,161.4 L 762.0,161.9 L 765.0,162.5 L 768.0,163.2 L 771.0,164.0 L 774.0,164.8 L 777.0,165.7 L 780.0,166.6 L 783.0,167.6 L 786.0,168.7 L 789.0,169.8 L 792.0,171.0 L 795.0,172.2 L 798.0,173.5 L 801.0,174.8 L 804.0,176.1 L 807.0,177.4 L 810.0,178.8 L 813.0,180.2 L 816.0,181.6 L 819.0,183.0 L 822.0,184.5 L 825.0,185.9 L 828.0,187.3 L 831.0,188.7 L 834.0,190.0 L 837.0,191.4 L 840.0,192.7 L 843.0,194.0 L 846.0,195.2 L 849.0,196.4 L 852.0,197.5 L 855.0,198.6 L 858.0,199.6 L 861.0,200.6 L 864.0,201.4 L 867.0,202.2 L 870.0,203.0 L 873.0,203.6 L 876.0,204.2 L 879.0,204.7 L 882.0,205.1 L 885.0,205.4 L 888.0,205.6 L 891.0,205.7 L 894.0,205.8 L 897.0,205.7 L 900.0,205.6 L 903.0,205.4 L 906.0,205.1 L 909.0,204.7 L 912.0,204.2 L 915.0,203.7 L 918.0,203.0 L 921.0,202.3 L 924.0,201.6 L 927.0,200.7 L 930.0,199.8 L 933.0,198.9 L 936.0,197.9 L 939.0,196.8 L 942.0,195.7 L 945.0,194.6 L 948.0,193.4 L 951.0,192.2 L 954.0,191.0 L 957.0,189.8 L 960.0,188.5 L 963.0,187.3 L 966.0,186.0 L 969.0,184.8 L 972.0,183.5 L 975.0,182.3 L 978.0,181.1 L 981.0,179.9 L 984.0,178.7 L 987.0,177.6 L 990.0,176.5 L 993.0,175.4 L 996.0,174.4 L 999.0,173.4 L 1002.0,172.5 L 1005.0,171.6 L 1008.0,170.8 L 1011.0,170.0 L 1014.0,169.3 L 1017.0,168.6 L 1020.0,168.0 L 1023.0,167.5 L 1026.0,166.9 L 1029.0,166.5 L 1032.0,166.1 L 1035.0,165.8 L 1038.0,165.5 L 1041.0,165.2 L 1044.0,165.0 L 1047.0,164.9 L 1050.0,164.8 L 1053.0,164.7 L 1056.0,164.7 L 1059.0,164.7 L 1062.0,164.7 L 1065.0,164.8 L 1068.0,164.9 L 1071.0,165.0 L 1074.0,165.2 L 1077.0,165.3 L 1080.0,165.5 L 1083.0,165.7 L 1086.0,165.9 L 1089.0,166.1 L 1092.0,166.3 L 1095.0,166.6 L 1098.0,166.8 L 1101.0,167.0 L 1104.0,167.2 L 1107.0,167.4 L 1110.0,167.6 L 1113.0,167.7 L 1116.0,167.9 L 1119.0,168.0 L 1122.0,168.2 L 1125.0,168.3 L 1128.0,168.4 L 1131.0,168.5 L 1134.0,168.6 L 1137.0,168.6 L 1140.0,168.7 L 1143.0,168.7 L 1146.0,168.8 L 1149.0,168.8 L 1152.0,168.8 L 1155.0,168.8 L 1158.0,168.8 L 1161.0,168.8 L 1164.0,168.9 L 1167.0,168.9 L 1170.0,168.9 L 1173.0,168.9 L 1176.0,169.0 L 1179.0,169.0 L 1182.0,169.1 L 1185.0,169.2 L 1188.0,169.3 L 1191.0,169.5 L 1194.0,169.6 L 1197.0,169.8 L 1200.0,170.1" fill="none" stroke="#A6F0FF" stroke-opacity="0.68" stroke-width="2.6" stroke-linecap="round"/>
<path d="M 0,216.3 L 3.0,215.8 L 6.0,215.2 L 9.0,214.5 L 12.0,213.7 L 15.0,212.8 L 18.0,211.8 L 21.0,210.7 L 24.0,209.6 L 27.0,208.4 L 30.0,207.1 L 33.0,205.8 L 36.0,204.4 L 39.0,203.0 L 42.0,201.5 L 45.0,200.1 L 48.0,198.6 L 51.0,197.1 L 54.0,195.6 L 57.0,194.2 L 60.0,192.8 L 63.0,191.4 L 66.0,190.1 L 69.0,188.8 L 72.0,187.6 L 75.0,186.5 L 78.0,185.4 L 81.0,184.5 L 84.0,183.7 L 87.0,182.9 L 90.0,182.3 L 93.0,181.8 L 96.0,181.4 L 99.0,181.2 L 102.0,181.0 L 105.0,181.0 L 108.0,181.1 L 111.0,181.4 L 114.0,181.8 L 117.0,182.3 L 120.0,182.9 L 123.0,183.6 L 126.0,184.4 L 129.0,185.3 L 132.0,186.4 L 135.0,187.5 L 138.0,188.7 L 141.0,189.9 L 144.0,191.2 L 147.0,192.6 L 150.0,194.0 L 153.0,195.4 L 156.0,196.9 L 159.0,198.3 L 162.0,199.8 L 165.0,201.2 L 168.0,202.6 L 171.0,204.0 L 174.0,205.4 L 177.0,206.7 L 180.0,207.9 L 183.0,209.1 L 186.0,210.2 L 189.0,211.3 L 192.0,212.2 L 195.0,213.1 L 198.0,213.9 L 201.0,214.6 L 204.0,215.2 L 207.0,215.8 L 210.0,216.2 L 213.0,216.5 L 216.0,216.8 L 219.0,216.9 L 222.0,217.0 L 225.0,217.0 L 228.0,216.9 L 231.0,216.8 L 234.0,216.5 L 237.0,216.2 L 240.0,215.9 L 243.0,215.5 L 246.0,215.0 L 249.0,214.5 L 252.0,214.0 L 255.0,213.5 L 258.0,212.9 L 261.0,212.3 L 264.0,211.7 L 267.0,211.1 L 270.0,210.5 L 273.0,209.9 L 276.0,209.3 L 279.0,208.7 L 282.0,208.2 L 285.0,207.6 L 288.0,207.1 L 291.0,206.6 L 294.0,206.1 L 297.0,205.6 L 300.0,205.2 L 303.0,204.8 L 306.0,204.4 L 309.0,204.0 L 312.0,203.6 L 315.0,203.3 L 318.0,202.9 L 321.0,202.6 L 324.0,202.3 L 327.0,202.0 L 330.0,201.6 L 333.0,201.3 L 336.0,201.0 L 339.0,200.6 L 342.0,200.3 L 345.0,199.9 L 348.0,199.5 L 351.0,199.1 L 354.0,198.7 L 357.0,198.2 L 360.0,197.8 L 363.0,197.3 L 366.0,196.8 L 369.0,196.2 L 372.0,195.7 L 375.0,195.1 L 378.0,194.5 L 381.0,194.0 L 384.0,193.4 L 387.0,192.8 L 390.0,192.2 L 393.0,191.6 L 396.0,191.0 L 399.0,190.4 L 402.0,189.9 L 405.0,189.4 L 408.0,188.9 L 411.0,188.4 L 414.0,188.0 L 417.0,187.7 L 420.0,187.4 L 423.0,187.2 L 426.0,187.1 L 429.0,187.0 L 432.0,187.0 L 435.0,187.1 L 438.0,187.3 L 441.0,187.6 L 444.0,187.9 L 447.0,188.4 L 450.0,188.9 L 453.0,189.5 L 456.0,190.3 L 459.0,191.1 L 462.0,192.0 L 465.0,193.0 L 468.0,194.0 L 471.0,195.2 L 474.0,196.4 L 477.0,197.6 L 480.0,198.9 L 483.0,200.3 L 486.0,201.7 L 489.0,203.1 L 492.0,204.6 L 495.0,206.0 L 498.0,207.5 L 501.0,208.9 L 504.0,210.3 L 507.0,211.7 L 510.0,213.1 L 513.0,214.4 L 516.0,215.6 L 519.0,216.8 L 522.0,217.9 L 525.0,218.9 L 528.0,219.8 L 531.0,220.6 L 534.0,221.3 L 537.0,221.9 L 540.0,222.3 L 543.0,222.7 L 546.0,222.9 L 549.0,223.0 L 552.0,223.0 L 555.0,222.8 L 558.0,222.5 L 561.0,222.1 L 564.0,221.6 L 567.0,220.9 L 570.0,220.2 L 573.0,219.3 L 576.0,218.3 L 579.0,217.3 L 582.0,216.1 L 585.0,214.9 L 588.0,213.6 L 591.0,212.3 L 594.0,210.9 L 597.0,209.5 L 600.0,208.0 L 603.0,206.6 L 606.0,205.1 L 609.0,203.6 L 612.0,202.1 L 615.0,200.7 L 618.0,199.3 L 621.0,197.9 L 624.0,196.6 L 627.0,195.3 L 630.0,194.1 L 633.0,193.0 L 636.0,192.0 L 639.0,191.0 L 642.0,190.1 L 645.0,189.4 L 648.0,188.7 L 651.0,188.1 L 654.0,187.6 L 657.0,187.1 L 660.0,186.8 L 663.0,186.6 L 666.0,186.5 L 669.0,186.4 L 672.0,186.5 L 675.0,186.6 L 678.0,186.8 L 681.0,187.1 L 684.0,187.4 L 687.0,187.8 L 690.0,188.3 L 693.0,188.8 L 696.0,189.3 L 699.0,189.9 L 702.0,190.5 L 705.0,191.1 L 708.0,191.8 L 711.0,192.4 L 714.0,193.1 L 717.0,193.8 L 720.0,194.4 L 723.0,195.1 L 726.0,195.7 L 729.0,196.3 L 732.0,196.9 L 735.0,197.5 L 738.0,198.0 L 741.0,198.6 L 744.0,199.1 L 747.0,199.5 L 750.0,200.0 L 753.0,200.4 L 756.0,200.8 L 759.0,201.2 L 762.0,201.6 L 765.0,201.9 L 768.0,202.3 L 771.0,202.6 L 774.0,202.9 L 777.0,203.2 L 780.0,203.6 L 783.0,203.9 L 786.0,204.2 L 789.0,204.5 L 792.0,204.9 L 795.0,205.2 L 798.0,205.6 L 801.0,206.0 L 804.0,206.4 L 807.0,206.8 L 810.0,207.3 L 813.0,207.7 L 816.0,208.2 L 819.0,208.7 L 822.0,209.2 L 825.0,209.8 L 828.0,210.3 L 831.0,210.8 L 834.0,211.4 L 837.0,211.9 L 840.0,212.5 L 843.0,213.0 L 846.0,213.5 L 849.0,214.0 L 852.0,214.5 L 855.0,214.9 L 858.0,215.3 L 861.0,215.6 L 864.0,215.9 L 867.0,216.1 L 870.0,216.3 L 873.0,216.4 L 876.0,216.4 L 879.0,216.4 L 882.0,216.3 L 885.0,216.1 L 888.0,215.8 L 891.0,215.4 L 894.0,214.9 L 897.0,214.4 L 900.0,213.7 L 903.0,213.0 L 906.0,212.2 L 909.0,211.3 L 912.0,210.3 L 915.0,209.2 L 918.0,208.1 L 921.0,206.9 L 924.0,205.7 L 927.0,204.4 L 930.0,203.0 L 933.0,201.6 L 936.0,200.2 L 939.0,198.8 L 942.0,197.4 L 945.0,196.0 L 948.0,194.5 L 951.0,193.1 L 954.0,191.8 L 957.0,190.5 L 960.0,189.2 L 963.0,188.0 L 966.0,186.9 L 969.0,185.8 L 972.0,184.9 L 975.0,184.0 L 978.0,183.2 L 981.0,182.6 L 984.0,182.0 L 987.0,181.6 L 990.0,181.3 L 993.0,181.1 L 996.0,181.0 L 999.0,181.1 L 1002.0,181.3 L 1005.0,181.6 L 1008.0,182.1 L 1011.0,182.6 L 1014.0,183.3 L 1017.0,184.1 L 1020.0,185.0 L 1023.0,186.0 L 1026.0,187.1 L 1029.0,188.3 L 1032.0,189.5 L 1035.0,190.8 L 1038.0,192.2 L 1041.0,193.6 L 1044.0,195.1 L 1047.0,196.6 L 1050.0,198.1 L 1053.0,199.6 L 1056.0,201.1 L 1059.0,202.5 L 1062.0,204.0 L 1065.0,205.4 L 1068.0,206.8 L 1071.0,208.1 L 1074.0,209.4 L 1077.0,210.6 L 1080.0,211.7 L 1083.0,212.7 L 1086.0,213.7 L 1089.0,214.6 L 1092.0,215.3 L 1095.0,216.0 L 1098.0,216.6 L 1101.0,217.1 L 1104.0,217.5 L 1107.0,217.8 L 1110.0,218.0 L 1113.0,218.1 L 1116.0,218.1 L 1119.0,218.0 L 1122.0,217.8 L 1125.0,217.6 L 1128.0,217.3 L 1131.0,216.9 L 1134.0,216.4 L 1137.0,215.9 L 1140.0,215.4 L 1143.0,214.8 L 1146.0,214.1 L 1149.0,213.5 L 1152.0,212.8 L 1155.0,212.1 L 1158.0,211.4 L 1161.0,210.7 L 1164.0,210.0 L 1167.0,209.3 L 1170.0,208.6 L 1173.0,207.9 L 1176.0,207.2 L 1179.0,206.6 L 1182.0,205.9 L 1185.0,205.3 L 1188.0,204.8 L 1191.0,204.2 L 1194.0,203.7 L 1197.0,203.2 L 1200.0,202.8 L 1200,230 L 0,230 Z" fill="url(#w4)" opacity="0.5"/>
<path d="M 0.0,216.3 L 3.0,215.8 L 6.0,215.2 L 9.0,214.5 L 12.0,213.7 L 15.0,212.8 L 18.0,211.8 L 21.0,210.7 L 24.0,209.6 L 27.0,208.4 L 30.0,207.1 L 33.0,205.8 L 36.0,204.4 L 39.0,203.0 L 42.0,201.5 L 45.0,200.1 L 48.0,198.6 L 51.0,197.1 L 54.0,195.6 L 57.0,194.2 L 60.0,192.8 L 63.0,191.4 L 66.0,190.1 L 69.0,188.8 L 72.0,187.6 L 75.0,186.5 L 78.0,185.4 L 81.0,184.5 L 84.0,183.7 L 87.0,182.9 L 90.0,182.3 L 93.0,181.8 L 96.0,181.4 L 99.0,181.2 L 102.0,181.0 L 105.0,181.0 L 108.0,181.1 L 111.0,181.4 L 114.0,181.8 L 117.0,182.3 L 120.0,182.9 L 123.0,183.6 L 126.0,184.4 L 129.0,185.3 L 132.0,186.4 L 135.0,187.5 L 138.0,188.7 L 141.0,189.9 L 144.0,191.2 L 147.0,192.6 L 150.0,194.0 L 153.0,195.4 L 156.0,196.9 L 159.0,198.3 L 162.0,199.8 L 165.0,201.2 L 168.0,202.6 L 171.0,204.0 L 174.0,205.4 L 177.0,206.7 L 180.0,207.9 L 183.0,209.1 L 186.0,210.2 L 189.0,211.3 L 192.0,212.2 L 195.0,213.1 L 198.0,213.9 L 201.0,214.6 L 204.0,215.2 L 207.0,215.8 L 210.0,216.2 L 213.0,216.5 L 216.0,216.8 L 219.0,216.9 L 222.0,217.0 L 225.0,217.0 L 228.0,216.9 L 231.0,216.8 L 234.0,216.5 L 237.0,216.2 L 240.0,215.9 L 243.0,215.5 L 246.0,215.0 L 249.0,214.5 L 252.0,214.0 L 255.0,213.5 L 258.0,212.9 L 261.0,212.3 L 264.0,211.7 L 267.0,211.1 L 270.0,210.5 L 273.0,209.9 L 276.0,209.3 L 279.0,208.7 L 282.0,208.2 L 285.0,207.6 L 288.0,207.1 L 291.0,206.6 L 294.0,206.1 L 297.0,205.6 L 300.0,205.2 L 303.0,204.8 L 306.0,204.4 L 309.0,204.0 L 312.0,203.6 L 315.0,203.3 L 318.0,202.9 L 321.0,202.6 L 324.0,202.3 L 327.0,202.0 L 330.0,201.6 L 333.0,201.3 L 336.0,201.0 L 339.0,200.6 L 342.0,200.3 L 345.0,199.9 L 348.0,199.5 L 351.0,199.1 L 354.0,198.7 L 357.0,198.2 L 360.0,197.8 L 363.0,197.3 L 366.0,196.8 L 369.0,196.2 L 372.0,195.7 L 375.0,195.1 L 378.0,194.5 L 381.0,194.0 L 384.0,193.4 L 387.0,192.8 L 390.0,192.2 L 393.0,191.6 L 396.0,191.0 L 399.0,190.4 L 402.0,189.9 L 405.0,189.4 L 408.0,188.9 L 411.0,188.4 L 414.0,188.0 L 417.0,187.7 L 420.0,187.4 L 423.0,187.2 L 426.0,187.1 L 429.0,187.0 L 432.0,187.0 L 435.0,187.1 L 438.0,187.3 L 441.0,187.6 L 444.0,187.9 L 447.0,188.4 L 450.0,188.9 L 453.0,189.5 L 456.0,190.3 L 459.0,191.1 L 462.0,192.0 L 465.0,193.0 L 468.0,194.0 L 471.0,195.2 L 474.0,196.4 L 477.0,197.6 L 480.0,198.9 L 483.0,200.3 L 486.0,201.7 L 489.0,203.1 L 492.0,204.6 L 495.0,206.0 L 498.0,207.5 L 501.0,208.9 L 504.0,210.3 L 507.0,211.7 L 510.0,213.1 L 513.0,214.4 L 516.0,215.6 L 519.0,216.8 L 522.0,217.9 L 525.0,218.9 L 528.0,219.8 L 531.0,220.6 L 534.0,221.3 L 537.0,221.9 L 540.0,222.3 L 543.0,222.7 L 546.0,222.9 L 549.0,223.0 L 552.0,223.0 L 555.0,222.8 L 558.0,222.5 L 561.0,222.1 L 564.0,221.6 L 567.0,220.9 L 570.0,220.2 L 573.0,219.3 L 576.0,218.3 L 579.0,217.3 L 582.0,216.1 L 585.0,214.9 L 588.0,213.6 L 591.0,212.3 L 594.0,210.9 L 597.0,209.5 L 600.0,208.0 L 603.0,206.6 L 606.0,205.1 L 609.0,203.6 L 612.0,202.1 L 615.0,200.7 L 618.0,199.3 L 621.0,197.9 L 624.0,196.6 L 627.0,195.3 L 630.0,194.1 L 633.0,193.0 L 636.0,192.0 L 639.0,191.0 L 642.0,190.1 L 645.0,189.4 L 648.0,188.7 L 651.0,188.1 L 654.0,187.6 L 657.0,187.1 L 660.0,186.8 L 663.0,186.6 L 666.0,186.5 L 669.0,186.4 L 672.0,186.5 L 675.0,186.6 L 678.0,186.8 L 681.0,187.1 L 684.0,187.4 L 687.0,187.8 L 690.0,188.3 L 693.0,188.8 L 696.0,189.3 L 699.0,189.9 L 702.0,190.5 L 705.0,191.1 L 708.0,191.8 L 711.0,192.4 L 714.0,193.1 L 717.0,193.8 L 720.0,194.4 L 723.0,195.1 L 726.0,195.7 L 729.0,196.3 L 732.0,196.9 L 735.0,197.5 L 738.0,198.0 L 741.0,198.6 L 744.0,199.1 L 747.0,199.5 L 750.0,200.0 L 753.0,200.4 L 756.0,200.8 L 759.0,201.2 L 762.0,201.6 L 765.0,201.9 L 768.0,202.3 L 771.0,202.6 L 774.0,202.9 L 777.0,203.2 L 780.0,203.6 L 783.0,203.9 L 786.0,204.2 L 789.0,204.5 L 792.0,204.9 L 795.0,205.2 L 798.0,205.6 L 801.0,206.0 L 804.0,206.4 L 807.0,206.8 L 810.0,207.3 L 813.0,207.7 L 816.0,208.2 L 819.0,208.7 L 822.0,209.2 L 825.0,209.8 L 828.0,210.3 L 831.0,210.8 L 834.0,211.4 L 837.0,211.9 L 840.0,212.5 L 843.0,213.0 L 846.0,213.5 L 849.0,214.0 L 852.0,214.5 L 855.0,214.9 L 858.0,215.3 L 861.0,215.6 L 864.0,215.9 L 867.0,216.1 L 870.0,216.3 L 873.0,216.4 L 876.0,216.4 L 879.0,216.4 L 882.0,216.3 L 885.0,216.1 L 888.0,215.8 L 891.0,215.4 L 894.0,214.9 L 897.0,214.4 L 900.0,213.7 L 903.0,213.0 L 906.0,212.2 L 909.0,211.3 L 912.0,210.3 L 915.0,209.2 L 918.0,208.1 L 921.0,206.9 L 924.0,205.7 L 927.0,204.4 L 930.0,203.0 L 933.0,201.6 L 936.0,200.2 L 939.0,198.8 L 942.0,197.4 L 945.0,196.0 L 948.0,194.5 L 951.0,193.1 L 954.0,191.8 L 957.0,190.5 L 960.0,189.2 L 963.0,188.0 L 966.0,186.9 L 969.0,185.8 L 972.0,184.9 L 975.0,184.0 L 978.0,183.2 L 981.0,182.6 L 984.0,182.0 L 987.0,181.6 L 990.0,181.3 L 993.0,181.1 L 996.0,181.0 L 999.0,181.1 L 1002.0,181.3 L 1005.0,181.6 L 1008.0,182.1 L 1011.0,182.6 L 1014.0,183.3 L 1017.0,184.1 L 1020.0,185.0 L 1023.0,186.0 L 1026.0,187.1 L 1029.0,188.3 L 1032.0,189.5 L 1035.0,190.8 L 1038.0,192.2 L 1041.0,193.6 L 1044.0,195.1 L 1047.0,196.6 L 1050.0,198.1 L 1053.0,199.6 L 1056.0,201.1 L 1059.0,202.5 L 1062.0,204.0 L 1065.0,205.4 L 1068.0,206.8 L 1071.0,208.1 L 1074.0,209.4 L 1077.0,210.6 L 1080.0,211.7 L 1083.0,212.7 L 1086.0,213.7 L 1089.0,214.6 L 1092.0,215.3 L 1095.0,216.0 L 1098.0,216.6 L 1101.0,217.1 L 1104.0,217.5 L 1107.0,217.8 L 1110.0,218.0 L 1113.0,218.1 L 1116.0,218.1 L 1119.0,218.0 L 1122.0,217.8 L 1125.0,217.6 L 1128.0,217.3 L 1131.0,216.9 L 1134.0,216.4 L 1137.0,215.9 L 1140.0,215.4 L 1143.0,214.8 L 1146.0,214.1 L 1149.0,213.5 L 1152.0,212.8 L 1155.0,212.1 L 1158.0,211.4 L 1161.0,210.7 L 1164.0,210.0 L 1167.0,209.3 L 1170.0,208.6 L 1173.0,207.9 L 1176.0,207.2 L 1179.0,206.6 L 1182.0,205.9 L 1185.0,205.3 L 1188.0,204.8 L 1191.0,204.2 L 1194.0,203.7 L 1197.0,203.2 L 1200.0,202.8" fill="none" stroke="#7BF5C9" stroke-opacity="0.72" stroke-width="2.8" stroke-linecap="round"/>
<path d="M 0,228.3 L 3.0,227.9 L 6.0,227.3 L 9.0,226.7 L 12.0,226.1 L 15.0,225.4 L 18.0,224.7 L 21.0,223.9 L 24.0,223.2 L 27.0,222.4 L 30.0,221.7 L 33.0,220.9 L 36.0,220.2 L 39.0,219.6 L 42.0,219.0 L 45.0,218.4 L 48.0,217.8 L 51.0,217.4 L 54.0,216.9 L 57.0,216.5 L 60.0,216.2 L 63.0,215.9 L 66.0,215.6 L 69.0,215.4 L 72.0,215.2 L 75.0,215.0 L 78.0,214.9 L 81.0,214.7 L 84.0,214.6 L 87.0,214.5 L 90.0,214.4 L 93.0,214.3 L 96.0,214.1 L 99.0,214.0 L 102.0,213.8 L 105.0,213.6 L 108.0,213.4 L 111.0,213.2 L 114.0,213.0 L 117.0,212.8 L 120.0,212.5 L 123.0,212.3 L 126.0,212.0 L 129.0,211.8 L 132.0,211.5 L 135.0,211.3 L 138.0,211.1 L 141.0,211.0 L 144.0,210.9 L 147.0,210.8 L 150.0,210.8 L 153.0,210.9 L 156.0,211.0 L 159.0,211.2 L 162.0,211.5 L 165.0,211.9 L 168.0,212.3 L 171.0,212.9 L 174.0,213.5 L 177.0,214.2 L 180.0,215.0 L 183.0,215.9 L 186.0,216.8 L 189.0,217.8 L 192.0,218.8 L 195.0,219.9 L 198.0,221.0 L 201.0,222.1 L 204.0,223.2 L 207.0,224.3 L 210.0,225.3 L 213.0,226.4 L 216.0,227.4 L 219.0,228.3 L 222.0,229.1 L 225.0,229.8 L 228.0,230.4 L 231.0,231.0 L 234.0,231.3 L 237.0,231.6 L 240.0,231.7 L 243.0,231.6 L 246.0,231.5 L 249.0,231.1 L 252.0,230.6 L 255.0,230.0 L 258.0,229.2 L 261.0,228.3 L 264.0,227.3 L 267.0,226.2 L 270.0,224.9 L 273.0,223.6 L 276.0,222.2 L 279.0,220.7 L 282.0,219.2 L 285.0,217.7 L 288.0,216.2 L 291.0,214.7 L 294.0,213.2 L 297.0,211.8 L 300.0,210.5 L 303.0,209.2 L 306.0,208.0 L 309.0,206.9 L 312.0,206.0 L 315.0,205.2 L 318.0,204.5 L 321.0,204.0 L 324.0,203.7 L 327.0,203.5 L 330.0,203.4 L 333.0,203.5 L 336.0,203.8 L 339.0,204.2 L 342.0,204.8 L 345.0,205.5 L 348.0,206.3 L 351.0,207.2 L 354.0,208.2 L 357.0,209.3 L 360.0,210.5 L 363.0,211.7 L 366.0,213.0 L 369.0,214.3 L 372.0,215.5 L 375.0,216.8 L 378.0,218.1 L 381.0,219.3 L 384.0,220.5 L 387.0,221.5 L 390.0,222.6 L 393.0,223.5 L 396.0,224.4 L 399.0,225.1 L 402.0,225.8 L 405.0,226.3 L 408.0,226.7 L 411.0,227.1 L 414.0,227.3 L 417.0,227.4 L 420.0,227.4 L 423.0,227.4 L 426.0,227.2 L 429.0,227.0 L 432.0,226.7 L 435.0,226.4 L 438.0,226.0 L 441.0,225.5 L 444.0,225.0 L 447.0,224.5 L 450.0,224.0 L 453.0,223.5 L 456.0,223.0 L 459.0,222.5 L 462.0,222.0 L 465.0,221.5 L 468.0,221.1 L 471.0,220.6 L 474.0,220.2 L 477.0,219.9 L 480.0,219.5 L 483.0,219.2 L 486.0,219.0 L 489.0,218.7 L 492.0,218.5 L 495.0,218.3 L 498.0,218.1 L 501.0,217.8 L 504.0,217.6 L 507.0,217.4 L 510.0,217.2 L 513.0,217.0 L 516.0,216.7 L 519.0,216.5 L 522.0,216.2 L 525.0,215.9 L 528.0,215.5 L 531.0,215.1 L 534.0,214.7 L 537.0,214.3 L 540.0,213.8 L 543.0,213.4 L 546.0,212.9 L 549.0,212.4 L 552.0,211.9 L 555.0,211.4 L 558.0,210.9 L 561.0,210.5 L 564.0,210.0 L 567.0,209.7 L 570.0,209.3 L 573.0,209.1 L 576.0,208.9 L 579.0,208.8 L 582.0,208.7 L 585.0,208.8 L 588.0,209.0 L 591.0,209.2 L 594.0,209.6 L 597.0,210.0 L 600.0,210.6 L 603.0,211.3 L 606.0,212.0 L 609.0,212.9 L 612.0,213.9 L 615.0,214.9 L 618.0,216.0 L 621.0,217.2 L 624.0,218.4 L 627.0,219.6 L 630.0,220.9 L 633.0,222.2 L 636.0,223.4 L 639.0,224.7 L 642.0,225.9 L 645.0,227.0 L 648.0,228.1 L 651.0,229.1 L 654.0,230.0 L 657.0,230.7 L 660.0,231.4 L 663.0,231.9 L 666.0,232.2 L 669.0,232.5 L 672.0,232.5 L 675.0,232.4 L 678.0,232.2 L 681.0,231.8 L 684.0,231.2 L 687.0,230.5 L 690.0,229.7 L 693.0,228.7 L 696.0,227.6 L 699.0,226.4 L 702.0,225.1 L 705.0,223.7 L 708.0,222.3 L 711.0,220.8 L 714.0,219.3 L 717.0,217.7 L 720.0,216.2 L 723.0,214.7 L 726.0,213.3 L 729.0,211.9 L 732.0,210.6 L 735.0,209.4 L 738.0,208.3 L 741.0,207.3 L 744.0,206.4 L 747.0,205.7 L 750.0,205.1 L 753.0,204.7 L 756.0,204.4 L 759.0,204.2 L 762.0,204.2 L 765.0,204.4 L 768.0,204.7 L 771.0,205.1 L 774.0,205.7 L 777.0,206.3 L 780.0,207.1 L 783.0,208.0 L 786.0,208.9 L 789.0,209.9 L 792.0,211.0 L 795.0,212.1 L 798.0,213.2 L 801.0,214.3 L 804.0,215.4 L 807.0,216.6 L 810.0,217.6 L 813.0,218.7 L 816.0,219.6 L 819.0,220.6 L 822.0,221.4 L 825.0,222.2 L 828.0,222.9 L 831.0,223.5 L 834.0,224.0 L 837.0,224.4 L 840.0,224.8 L 843.0,225.1 L 846.0,225.2 L 849.0,225.3 L 852.0,225.4 L 855.0,225.4 L 858.0,225.3 L 861.0,225.1 L 864.0,225.0 L 867.0,224.8 L 870.0,224.5 L 873.0,224.3 L 876.0,224.0 L 879.0,223.7 L 882.0,223.4 L 885.0,223.2 L 888.0,222.9 L 891.0,222.7 L 894.0,222.4 L 897.0,222.2 L 900.0,222.0 L 903.0,221.9 L 906.0,221.7 L 909.0,221.5 L 912.0,221.4 L 915.0,221.3 L 918.0,221.1 L 921.0,221.0 L 924.0,220.8 L 927.0,220.7 L 930.0,220.5 L 933.0,220.3 L 936.0,220.1 L 939.0,219.8 L 942.0,219.5 L 945.0,219.1 L 948.0,218.8 L 951.0,218.3 L 954.0,217.8 L 957.0,217.3 L 960.0,216.7 L 963.0,216.1 L 966.0,215.5 L 969.0,214.8 L 972.0,214.1 L 975.0,213.3 L 978.0,212.6 L 981.0,211.9 L 984.0,211.2 L 987.0,210.5 L 990.0,209.8 L 993.0,209.2 L 996.0,208.6 L 999.0,208.1 L 1002.0,207.7 L 1005.0,207.3 L 1008.0,207.1 L 1011.0,206.9 L 1014.0,206.9 L 1017.0,207.0 L 1020.0,207.2 L 1023.0,207.5 L 1026.0,207.9 L 1029.0,208.5 L 1032.0,209.2 L 1035.0,210.0 L 1038.0,210.9 L 1041.0,211.9 L 1044.0,213.0 L 1047.0,214.2 L 1050.0,215.5 L 1053.0,216.8 L 1056.0,218.1 L 1059.0,219.5 L 1062.0,220.9 L 1065.0,222.3 L 1068.0,223.7 L 1071.0,225.0 L 1074.0,226.3 L 1077.0,227.5 L 1080.0,228.6 L 1083.0,229.6 L 1086.0,230.5 L 1089.0,231.3 L 1092.0,231.9 L 1095.0,232.4 L 1098.0,232.7 L 1101.0,232.9 L 1104.0,232.9 L 1107.0,232.8 L 1110.0,232.5 L 1113.0,232.0 L 1116.0,231.4 L 1119.0,230.6 L 1122.0,229.7 L 1125.0,228.7 L 1128.0,227.6 L 1131.0,226.3 L 1134.0,225.0 L 1137.0,223.7 L 1140.0,222.2 L 1143.0,220.8 L 1146.0,219.3 L 1149.0,217.8 L 1152.0,216.4 L 1155.0,214.9 L 1158.0,213.6 L 1161.0,212.3 L 1164.0,211.1 L 1167.0,209.9 L 1170.0,208.9 L 1173.0,208.0 L 1176.0,207.3 L 1179.0,206.6 L 1182.0,206.1 L 1185.0,205.7 L 1188.0,205.5 L 1191.0,205.4 L 1194.0,205.5 L 1197.0,205.6 L 1200.0,205.9 L 1200,230 L 0,230 Z" fill="url(#w5)" opacity="0.38"/>
<path d="M 0.0,228.3 L 3.0,227.9 L 6.0,227.3 L 9.0,226.7 L 12.0,226.1 L 15.0,225.4 L 18.0,224.7 L 21.0,223.9 L 24.0,223.2 L 27.0,222.4 L 30.0,221.7 L 33.0,220.9 L 36.0,220.2 L 39.0,219.6 L 42.0,219.0 L 45.0,218.4 L 48.0,217.8 L 51.0,217.4 L 54.0,216.9 L 57.0,216.5 L 60.0,216.2 L 63.0,215.9 L 66.0,215.6 L 69.0,215.4 L 72.0,215.2 L 75.0,215.0 L 78.0,214.9 L 81.0,214.7 L 84.0,214.6 L 87.0,214.5 L 90.0,214.4 L 93.0,214.3 L 96.0,214.1 L 99.0,214.0 L 102.0,213.8 L 105.0,213.6 L 108.0,213.4 L 111.0,213.2 L 114.0,213.0 L 117.0,212.8 L 120.0,212.5 L 123.0,212.3 L 126.0,212.0 L 129.0,211.8 L 132.0,211.5 L 135.0,211.3 L 138.0,211.1 L 141.0,211.0 L 144.0,210.9 L 147.0,210.8 L 150.0,210.8 L 153.0,210.9 L 156.0,211.0 L 159.0,211.2 L 162.0,211.5 L 165.0,211.9 L 168.0,212.3 L 171.0,212.9 L 174.0,213.5 L 177.0,214.2 L 180.0,215.0 L 183.0,215.9 L 186.0,216.8 L 189.0,217.8 L 192.0,218.8 L 195.0,219.9 L 198.0,221.0 L 201.0,222.1 L 204.0,223.2 L 207.0,224.3 L 210.0,225.3 L 213.0,226.4 L 216.0,227.4 L 219.0,228.3 L 222.0,229.1 L 225.0,229.8 L 228.0,230.4 L 231.0,231.0 L 234.0,231.3 L 237.0,231.6 L 240.0,231.7 L 243.0,231.6 L 246.0,231.5 L 249.0,231.1 L 252.0,230.6 L 255.0,230.0 L 258.0,229.2 L 261.0,228.3 L 264.0,227.3 L 267.0,226.2 L 270.0,224.9 L 273.0,223.6 L 276.0,222.2 L 279.0,220.7 L 282.0,219.2 L 285.0,217.7 L 288.0,216.2 L 291.0,214.7 L 294.0,213.2 L 297.0,211.8 L 300.0,210.5 L 303.0,209.2 L 306.0,208.0 L 309.0,206.9 L 312.0,206.0 L 315.0,205.2 L 318.0,204.5 L 321.0,204.0 L 324.0,203.7 L 327.0,203.5 L 330.0,203.4 L 333.0,203.5 L 336.0,203.8 L 339.0,204.2 L 342.0,204.8 L 345.0,205.5 L 348.0,206.3 L 351.0,207.2 L 354.0,208.2 L 357.0,209.3 L 360.0,210.5 L 363.0,211.7 L 366.0,213.0 L 369.0,214.3 L 372.0,215.5 L 375.0,216.8 L 378.0,218.1 L 381.0,219.3 L 384.0,220.5 L 387.0,221.5 L 390.0,222.6 L 393.0,223.5 L 396.0,224.4 L 399.0,225.1 L 402.0,225.8 L 405.0,226.3 L 408.0,226.7 L 411.0,227.1 L 414.0,227.3 L 417.0,227.4 L 420.0,227.4 L 423.0,227.4 L 426.0,227.2 L 429.0,227.0 L 432.0,226.7 L 435.0,226.4 L 438.0,226.0 L 441.0,225.5 L 444.0,225.0 L 447.0,224.5 L 450.0,224.0 L 453.0,223.5 L 456.0,223.0 L 459.0,222.5 L 462.0,222.0 L 465.0,221.5 L 468.0,221.1 L 471.0,220.6 L 474.0,220.2 L 477.0,219.9 L 480.0,219.5 L 483.0,219.2 L 486.0,219.0 L 489.0,218.7 L 492.0,218.5 L 495.0,218.3 L 498.0,218.1 L 501.0,217.8 L 504.0,217.6 L 507.0,217.4 L 510.0,217.2 L 513.0,217.0 L 516.0,216.7 L 519.0,216.5 L 522.0,216.2 L 525.0,215.9 L 528.0,215.5 L 531.0,215.1 L 534.0,214.7 L 537.0,214.3 L 540.0,213.8 L 543.0,213.4 L 546.0,212.9 L 549.0,212.4 L 552.0,211.9 L 555.0,211.4 L 558.0,210.9 L 561.0,210.5 L 564.0,210.0 L 567.0,209.7 L 570.0,209.3 L 573.0,209.1 L 576.0,208.9 L 579.0,208.8 L 582.0,208.7 L 585.0,208.8 L 588.0,209.0 L 591.0,209.2 L 594.0,209.6 L 597.0,210.0 L 600.0,210.6 L 603.0,211.3 L 606.0,212.0 L 609.0,212.9 L 612.0,213.9 L 615.0,214.9 L 618.0,216.0 L 621.0,217.2 L 624.0,218.4 L 627.0,219.6 L 630.0,220.9 L 633.0,222.2 L 636.0,223.4 L 639.0,224.7 L 642.0,225.9 L 645.0,227.0 L 648.0,228.1 L 651.0,229.1 L 654.0,230.0 L 657.0,230.7 L 660.0,231.4 L 663.0,231.9 L 666.0,232.2 L 669.0,232.5 L 672.0,232.5 L 675.0,232.4 L 678.0,232.2 L 681.0,231.8 L 684.0,231.2 L 687.0,230.5 L 690.0,229.7 L 693.0,228.7 L 696.0,227.6 L 699.0,226.4 L 702.0,225.1 L 705.0,223.7 L 708.0,222.3 L 711.0,220.8 L 714.0,219.3 L 717.0,217.7 L 720.0,216.2 L 723.0,214.7 L 726.0,213.3 L 729.0,211.9 L 732.0,210.6 L 735.0,209.4 L 738.0,208.3 L 741.0,207.3 L 744.0,206.4 L 747.0,205.7 L 750.0,205.1 L 753.0,204.7 L 756.0,204.4 L 759.0,204.2 L 762.0,204.2 L 765.0,204.4 L 768.0,204.7 L 771.0,205.1 L 774.0,205.7 L 777.0,206.3 L 780.0,207.1 L 783.0,208.0 L 786.0,208.9 L 789.0,209.9 L 792.0,211.0 L 795.0,212.1 L 798.0,213.2 L 801.0,214.3 L 804.0,215.4 L 807.0,216.6 L 810.0,217.6 L 813.0,218.7 L 816.0,219.6 L 819.0,220.6 L 822.0,221.4 L 825.0,222.2 L 828.0,222.9 L 831.0,223.5 L 834.0,224.0 L 837.0,224.4 L 840.0,224.8 L 843.0,225.1 L 846.0,225.2 L 849.0,225.3 L 852.0,225.4 L 855.0,225.4 L 858.0,225.3 L 861.0,225.1 L 864.0,225.0 L 867.0,224.8 L 870.0,224.5 L 873.0,224.3 L 876.0,224.0 L 879.0,223.7 L 882.0,223.4 L 885.0,223.2 L 888.0,222.9 L 891.0,222.7 L 894.0,222.4 L 897.0,222.2 L 900.0,222.0 L 903.0,221.9 L 906.0,221.7 L 909.0,221.5 L 912.0,221.4 L 915.0,221.3 L 918.0,221.1 L 921.0,221.0 L 924.0,220.8 L 927.0,220.7 L 930.0,220.5 L 933.0,220.3 L 936.0,220.1 L 939.0,219.8 L 942.0,219.5 L 945.0,219.1 L 948.0,218.8 L 951.0,218.3 L 954.0,217.8 L 957.0,217.3 L 960.0,216.7 L 963.0,216.1 L 966.0,215.5 L 969.0,214.8 L 972.0,214.1 L 975.0,213.3 L 978.0,212.6 L 981.0,211.9 L 984.0,211.2 L 987.0,210.5 L 990.0,209.8 L 993.0,209.2 L 996.0,208.6 L 999.0,208.1 L 1002.0,207.7 L 1005.0,207.3 L 1008.0,207.1 L 1011.0,206.9 L 1014.0,206.9 L 1017.0,207.0 L 1020.0,207.2 L 1023.0,207.5 L 1026.0,207.9 L 1029.0,208.5 L 1032.0,209.2 L 1035.0,210.0 L 1038.0,210.9 L 1041.0,211.9 L 1044.0,213.0 L 1047.0,214.2 L 1050.0,215.5 L 1053.0,216.8 L 1056.0,218.1 L 1059.0,219.5 L 1062.0,220.9 L 1065.0,222.3 L 1068.0,223.7 L 1071.0,225.0 L 1074.0,226.3 L 1077.0,227.5 L 1080.0,228.6 L 1083.0,229.6 L 1086.0,230.5 L 1089.0,231.3 L 1092.0,231.9 L 1095.0,232.4 L 1098.0,232.7 L 1101.0,232.9 L 1104.0,232.9 L 1107.0,232.8 L 1110.0,232.5 L 1113.0,232.0 L 1116.0,231.4 L 1119.0,230.6 L 1122.0,229.7 L 1125.0,228.7 L 1128.0,227.6 L 1131.0,226.3 L 1134.0,225.0 L 1137.0,223.7 L 1140.0,222.2 L 1143.0,220.8 L 1146.0,219.3 L 1149.0,217.8 L 1152.0,216.4 L 1155.0,214.9 L 1158.0,213.6 L 1161.0,212.3 L 1164.0,211.1 L 1167.0,209.9 L 1170.0,208.9 L 1173.0,208.0 L 1176.0,207.3 L 1179.0,206.6 L 1182.0,206.1 L 1185.0,205.7 L 1188.0,205.5 L 1191.0,205.4 L 1194.0,205.5 L 1197.0,205.6 L 1200.0,205.9" fill="none" stroke="#9BE9A8" stroke-opacity="0.8" stroke-width="2.6" stroke-linecap="round"/>
</g>
</svg>
