<svg xmlns="http://www.w3.org/2000/svg" width="840" height="272" viewBox="0 0 840 272" role="img" aria-label="GitHub stats for hadryan89">
<title>GitHub stats for hadryan89</title>
<style>text{font-family:-apple-system, BlinkMacSystemFont, 'Segoe UI', 'Noto Sans', Helvetica, Arial, sans-serif;font-variant-numeric:tabular-nums}.h{font-size:14px;font-weight:600;fill:#1f2328}.s{font-size:12px;fill:#59636e}.v{font-size:28px;font-weight:600;fill:#1f2328;letter-spacing:-.02em}.u{font-size:13px;font-weight:400;fill:#59636e;letter-spacing:0}.n{font-size:12px;fill:#1f2328}</style>
<rect x=".5" y=".5" width="839" height="271" rx="10" fill="none" stroke="#d0d7de"/>
<text class="h" x="28" y="40">hadryan89</text>
<text class="s" x="812" y="40" text-anchor="end">Last 12 months</text>
<text class="v" x="28.0" y="92">1,437</text>
<text class="s" x="28.0" y="114">Contributions</text>
<text class="v" x="184.8" y="92">87</text>
<text class="s" x="184.8" y="114">Active days</text>
<text class="v" x="341.6" y="92">21</text>
<text class="s" x="341.6" y="114">Merged pull requests</text>
<text class="v" x="498.4" y="92">3<tspan class="u" dx="5">days</tspan></text>
<text class="s" x="498.4" y="114">Current streak</text>
<text class="v" x="655.2" y="92">5<tspan class="u" dx="5">days</tspan></text>
<text class="s" x="655.2" y="114">Longest streak</text>
<line x1="28" y1="140" x2="812" y2="140" stroke="#d0d7de"/>
<text class="s" x="28" y="170">Contributions per week</text>
<rect x="28.0" y="238.0" width="5.9" height="4.0" rx="1.5" fill="#ebedf0"/>
<rect x="36.9" y="238.0" width="5.9" height="4.0" rx="1.5" fill="#ebedf0"/>
<rect x="45.7" y="238.0" width="5.9" height="4.0" rx="1.5" fill="#ebedf0"/>
<rect x="54.6" y="238.0" width="5.9" height="4.0" rx="1.5" fill="#ebedf0"/>
<rect x="63.5" y="235.1" width="5.9" height="6.9" rx="1.5" fill="#9be9a8"/>
<rect x="72.3" y="238.0" width="5.9" height="4.0" rx="1.5" fill="#ebedf0"/>
<rect x="81.2" y="238.0" width="5.9" height="4.0" rx="1.5" fill="#ebedf0"/>
<rect x="90.1" y="238.0" width="5.9" height="4.0" rx="1.5" fill="#ebedf0"/>
<rect x="98.9" y="238.0" width="5.9" height="4.0" rx="1.5" fill="#ebedf0"/>
<rect x="107.8" y="232.9" width="5.9" height="9.1" rx="1.5" fill="#9be9a8"/>
<rect x="116.7" y="238.0" width="5.9" height="4.0" rx="1.5" fill="#ebedf0"/>
<rect x="125.5" y="238.0" width="5.9" height="4.0" rx="1.5" fill="#ebedf0"/>
<rect x="134.4" y="238.0" width="5.9" height="4.0" rx="1.5" fill="#ebedf0"/>
<rect x="143.3" y="238.0" width="5.9" height="4.0" rx="1.5" fill="#ebedf0"/>
<rect x="152.2" y="238.0" width="5.9" height="4.0" rx="1.5" fill="#ebedf0"/>
<rect x="161.0" y="214.9" width="5.9" height="27.1" rx="1.5" fill="#30a14e"/>
<rect x="169.9" y="221.4" width="5.9" height="20.6" rx="1.5" fill="#40c463"/>
<rect x="178.8" y="218.9" width="5.9" height="23.1" rx="1.5" fill="#40c463"/>
<rect x="187.6" y="228.7" width="5.9" height="13.3" rx="1.5" fill="#40c463"/>
<rect x="196.5" y="229.6" width="5.9" height="12.4" rx="1.5" fill="#9be9a8"/>
<rect x="205.4" y="236.0" width="5.9" height="6.0" rx="1.5" fill="#9be9a8"/>
<rect x="214.2" y="235.1" width="5.9" height="6.9" rx="1.5" fill="#9be9a8"/>
<rect x="223.1" y="233.6" width="5.9" height="8.4" rx="1.5" fill="#9be9a8"/>
<rect x="232.0" y="222.6" width="5.9" height="19.4" rx="1.5" fill="#40c463"/>
<rect x="240.8" y="233.6" width="5.9" height="8.4" rx="1.5" fill="#9be9a8"/>
<rect x="249.7" y="210.5" width="5.9" height="31.5" rx="1.5" fill="#30a14e"/>
<rect x="258.6" y="220.3" width="5.9" height="21.7" rx="1.5" fill="#40c463"/>
<rect x="267.4" y="235.1" width="5.9" height="6.9" rx="1.5" fill="#9be9a8"/>
<rect x="276.3" y="238.0" width="5.9" height="4.0" rx="1.5" fill="#ebedf0"/>
<rect x="285.2" y="238.0" width="5.9" height="4.0" rx="1.5" fill="#9be9a8"/>
<rect x="294.0" y="238.0" width="5.9" height="4.0" rx="1.5" fill="#ebedf0"/>
<rect x="302.9" y="236.0" width="5.9" height="6.0" rx="1.5" fill="#9be9a8"/>
<rect x="311.8" y="238.0" width="5.9" height="4.0" rx="1.5" fill="#ebedf0"/>
<rect x="320.6" y="238.0" width="5.9" height="4.0" rx="1.5" fill="#ebedf0"/>
<rect x="329.5" y="238.0" width="5.9" height="4.0" rx="1.5" fill="#ebedf0"/>
<rect x="338.4" y="238.0" width="5.9" height="4.0" rx="1.5" fill="#ebedf0"/>
<rect x="347.2" y="238.0" width="5.9" height="4.0" rx="1.5" fill="#ebedf0"/>
<rect x="356.1" y="236.0" width="5.9" height="6.0" rx="1.5" fill="#9be9a8"/>
<rect x="365.0" y="238.0" width="5.9" height="4.0" rx="1.5" fill="#ebedf0"/>
<rect x="373.8" y="215.8" width="5.9" height="26.2" rx="1.5" fill="#30a14e"/>
<rect x="382.7" y="229.1" width="5.9" height="12.9" rx="1.5" fill="#9be9a8"/>
<rect x="391.6" y="238.0" width="5.9" height="4.0" rx="1.5" fill="#ebedf0"/>
<rect x="400.5" y="238.0" width="5.9" height="4.0" rx="1.5" fill="#9be9a8"/>
<rect x="409.3" y="207.0" width="5.9" height="35.0" rx="1.5" fill="#30a14e"/>
<rect x="418.2" y="217.2" width="5.9" height="24.8" rx="1.5" fill="#40c463"/>
<rect x="427.1" y="220.3" width="5.9" height="21.7" rx="1.5" fill="#40c463"/>
<rect x="435.9" y="203.1" width="5.9" height="38.9" rx="1.5" fill="#30a14e"/>
<rect x="444.8" y="190.0" width="5.9" height="52.0" rx="1.5" fill="#216e39"/>
<rect x="453.7" y="197.2" width="5.9" height="44.8" rx="1.5" fill="#216e39"/>
<rect x="462.5" y="203.3" width="5.9" height="38.7" rx="1.5" fill="#30a14e"/>
<rect x="471.4" y="230.1" width="5.9" height="11.9" rx="1.5" fill="#9be9a8"/>
<rect x="480.3" y="206.6" width="5.9" height="35.4" rx="1.5" fill="#30a14e"/>
<rect x="489.1" y="223.8" width="5.9" height="18.2" rx="1.5" fill="#40c463"/>
<text class="s" x="548" y="170">Top languages</text>
<clipPath id="bar"><rect x="548" y="186" width="264" height="8" rx="4"/></clipPath>
<rect clip-path="url(#bar)" x="548.00" y="186" width="161.22" height="8" fill="#3572A5"/>
<rect clip-path="url(#bar)" x="708.72" y="186" width="88.36" height="8" fill="#3178c6"/>
<rect clip-path="url(#bar)" x="796.58" y="186" width="5.23" height="8" fill="#f1e05a"/>
<rect clip-path="url(#bar)" x="801.30" y="186" width="4.25" height="8" fill="#663399"/>
<rect clip-path="url(#bar)" x="805.06" y="186" width="3.30" height="8" fill="#c6538c"/>
<rect clip-path="url(#bar)" x="807.86" y="186" width="2.93" height="8" fill="#e34c26"/>
<circle cx="552.0" cy="216" r="4" fill="#3572A5"/>
<text class="n" x="562.0" y="220">Python <tspan class="s">60.9%</tspan></text>
<circle cx="684.0" cy="216" r="4" fill="#3178c6"/>
<text class="n" x="694.0" y="220">TypeScript <tspan class="s">33.3%</tspan></text>
<circle cx="552.0" cy="236" r="4" fill="#f1e05a"/>
<text class="n" x="562.0" y="240">JavaScript <tspan class="s">1.8%</tspan></text>
<circle cx="684.0" cy="236" r="4" fill="#663399"/>
<text class="n" x="694.0" y="240">CSS <tspan class="s">1.4%</tspan></text>
<circle cx="552.0" cy="256" r="4" fill="#c6538c"/>
<text class="n" x="562.0" y="260">SCSS <tspan class="s">1.1%</tspan></text>
<circle cx="684.0" cy="256" r="4" fill="#e34c26"/>
<text class="n" x="694.0" y="260">HTML <tspan class="s">0.9%</tspan></text>
</svg>
